<svg width="115" height="147" viewBox="0 0 115 147" fill="none" xmlns="http://www.w3.org/2000/svg">
<circle cx="54" cy="100.724" r="45.5745" fill="#EAF5EB"/>
<mask id="mask0" mask-type="alpha" maskUnits="userSpaceOnUse" x="0" y="0" width="115" height="142">
<path d="M89.2114 122.196C61.384 158.063 30.1464 137.14 18.006 122.196L8.59376 100.658L0 23.2963L23.7351 0C44.3329 7.03285 86.265 21.0985 89.2114 21.0985C92.1578 21.0985 106.535 45.4205 113.356 57.5814C116.902 64.1747 117.039 86.3282 89.2114 122.196Z" fill="#C4C4C4"/>
</mask>
<g mask="url(#mask0)">
<path fill-rule="evenodd" clip-rule="evenodd" d="M201.349 120.489C185.11 119.197 169.618 125.249 156.64 134.68C139.912 146.836 125.735 164.221 116.138 182.539C115.117 183.325 114.111 184.131 113.113 184.945C107.772 189.296 102.553 193.892 97.9281 199.007C95.3457 201.862 88.5726 208.805 91.513 213.185C92.1371 214.115 93.1619 214.648 94.1884 215.016C97.0663 216.047 100.066 216.569 102.905 217.774C106.408 219.262 110.041 221.345 112.286 224.522C112.924 225.425 113.091 226.491 113.949 226.889C114.859 227.312 116.575 227.147 117.57 227.245C119.569 227.441 121.569 227.637 123.569 227.833C128.268 228.293 133.179 228.344 137.775 229.479L158.919 234.7C163.244 235.767 168.214 236.356 172.316 238.111C178.436 240.73 184.274 244.565 190.13 247.725C192.962 249.253 195.794 250.782 198.625 252.31C200.008 253.056 200.955 253.066 202.575 253.191L214.27 254.091C216.157 254.236 217.063 254.995 217.31 253.108L220.028 232.352L221.465 221.377C221.551 220.724 221.525 217.491 222.06 217.101C222.396 216.856 224.365 217.383 224.729 217.428L230.037 218.078C233.86 218.546 237.683 219.014 241.506 219.482C241.816 219.52 243.535 219.5 243.728 219.754C243.954 220.052 243.524 221.758 243.485 222.125C243.08 225.979 242.674 229.833 242.268 233.687C242.221 234.134 241.678 236.206 241.964 236.573C242.163 236.828 243.603 236.859 243.896 236.906C247.584 237.508 251.271 238.11 254.959 238.713C257.6 239.144 261.052 239.122 263.549 240.115C264.982 240.685 266.401 242.143 267.639 243.055L285.625 256.29C288.353 258.297 292.03 257.785 295.352 258.038L333.673 260.958C333.641 259.765 333.609 258.571 333.577 257.377C333.409 251.056 333.24 244.735 333.072 238.414L332.851 230.146C332.837 229.623 333.046 228.092 332.704 227.705C332.25 227.192 330.218 226.969 329.587 226.783C327.472 226.156 325.357 225.531 323.243 224.905C317.038 223.068 310.834 221.232 304.63 219.395C298.498 217.581 292.367 215.765 286.235 213.95C284.137 213.329 282.039 212.708 279.941 212.087C279.457 211.944 277.764 211.753 277.427 211.343C277.003 210.827 277.193 208.624 277.125 207.97C276.792 204.776 276.317 201.596 275.739 198.438C271.571 175.658 261.828 152.518 243.762 137.321C231.82 127.275 216.841 121.721 201.349 120.489ZM198.485 166.171C200.093 164.284 202.793 161.205 205.633 161.716C207.941 162.131 209.199 164.993 210.003 166.895C213.237 174.54 214.24 183.304 215.246 191.475C215.877 196.602 216.385 201.751 216.709 206.907C205.19 206.02 193.671 205.134 182.151 204.248C182.695 200.578 183.131 196.873 183.785 193.22C184.114 191.389 185.021 189.741 185.797 188.05C189.266 180.484 193.054 172.548 198.485 166.171Z" fill="#079911"/>
<path fill-rule="evenodd" clip-rule="evenodd" d="M38.5791 17.129L38.2974 17.1339C30.653 17.3373 23.9116 22.2564 18.683 27.4624C16.0977 30.0365 13.74 33.0643 12.6305 36.5875C11.3493 40.6575 11.7709 45.1342 12.7457 49.2189C14.8991 58.2458 17.5309 67.3192 20.4905 76.1166C21.9468 80.4443 24.0585 84.6876 25.1576 89.117C26.0637 92.7662 22.248 95.4242 22.102 99.1743C21.9547 102.957 24.5 106.511 27.9976 107.863C29.4874 108.439 31.2897 107.958 32.663 108.548C33.9189 109.088 34.3587 110.68 34.5999 111.902C34.9285 113.568 34.8694 115.234 34.776 116.915C34.7186 117.944 34.975 119.623 34.4731 120.54C34.1284 121.17 33.5004 121.376 32.9594 121.807C32.221 122.396 31.729 123.128 31.0815 123.804C30.0141 124.92 28.9872 125.525 28.6973 127.153C28.5431 126.783 28.3888 126.413 28.2349 126.044C27.4392 127.499 26.8494 128.197 27.606 129.579C25.2588 129.348 23.8682 133.606 23.2528 135.221C22.1259 138.177 21.3519 141.247 20.2224 144.204C18.6743 148.259 16.6405 152.26 15.6526 156.502C14.823 160.067 14.1664 163.729 13.4289 167.319C13.0134 169.34 12.6514 171.394 11.8913 173.321C11.5957 174.07 11.0473 174.573 10.7074 175.24C10.2429 176.153 10.4245 176.636 10.4023 177.636C10.3632 179.418 9.23853 180.576 8.88477 182.308C8.50711 184.158 8.19852 186.029 7.81738 187.883C7.04947 191.617 5.62704 195.346 5.28461 199.129C4.88693 203.521 4.03384 207.86 3.60489 212.254C3.22943 216.093 3.8674 220.214 3.06558 223.928C2.35461 227.225 3.23596 230.239 3.54974 233.512C3.62927 234.343 2.34937 239.29 4.40628 238.34C4.01993 239.507 3.47845 240.063 3.44934 241.342C3.42239 242.539 3.73093 243.769 3.983 244.93C4.46973 247.172 4.79395 249.616 5.74744 251.717C6.82565 254.093 8.46887 254.378 10.7027 255.193C12.215 255.745 14.9382 257.715 16.1298 255.608C16.8404 257.771 18.2276 256.276 19.7826 256.155C19.7722 256.156 20.6726 256.488 20.8412 256.511C21.3879 256.585 22.0342 256.327 22.5783 256.282C23.9347 256.169 25.2654 256.351 26.5922 256.625C29.6495 257.259 32.6074 258.135 35.7099 258.577C41.7703 259.439 47.7094 259.031 53.7784 259.409C65.6558 260.147 77.7296 259.528 89.6161 259.208C90.8921 259.173 92.2672 259.352 93.5262 259.156C94.8834 258.944 95.1794 258.302 96.2367 257.659C97.9946 256.591 99.9451 257.63 101.769 258.02C107.123 259.166 112.714 259.251 118.111 260.359C129.076 262.611 139.178 267.055 149.681 270.803C154.234 272.428 159.578 275.059 164.488 275.174C170.439 275.302 169.033 269.441 167.94 265.674C171.378 266.587 176.777 270.757 180.271 268.337C184.436 265.453 179.137 260.658 178.888 257.269C186.331 258.813 194.774 262.202 202.329 259.448C203.783 258.918 205.048 257.797 206.608 257.615C208.231 257.426 209.946 257.999 211.586 257.989C215.322 257.965 218.951 257.468 222.686 257.928C231.014 258.954 239.224 259.515 247.62 259.737C256.071 259.959 264.524 260.46 272.98 260.439C277.272 260.428 281.643 259.919 285.927 260.147C287.608 260.237 291.228 261.458 292.41 259.749C293.596 261.172 294.604 260.221 296.126 260.379C295.844 260.35 296.919 260.971 297.08 261.031C297.88 261.328 298.628 261.238 299.464 261.229C301.689 261.207 303.767 262.248 305.981 262.147C306.541 262.122 306.964 261.959 307.439 261.767C307.552 261.721 307.525 261.237 307.705 261.197C308.788 260.954 308.508 261.617 309.196 261.952C309.958 262.322 311.086 261.723 310.652 262.863C312.72 262.772 314.68 263.469 316.562 262.242C315.672 264.208 318.78 262.575 319.592 262.543C320.942 262.489 322.124 263.164 323.47 263.319C325.085 263.505 326.707 262.757 328.287 263.214C329.525 263.571 329.948 264.432 331.237 263.992C332.331 263.618 333.014 262.806 333.546 261.918C334.278 260.693 334.372 260.146 336.139 260.125C337.449 260.109 338.767 260.391 340.09 260.388C341.605 260.385 343.271 260.224 344.655 260.945C346.146 261.721 347.021 262.903 348.675 263.511C356.109 266.244 364.269 265.521 372.026 265.474C375.298 265.454 377.7 265.755 378.619 262.023C379.395 258.869 379.706 255.571 380.447 252.391C381.354 248.495 382.351 244.88 384.365 241.396C386.318 238.018 387.961 234.529 389.662 231.02C393.198 223.722 398.121 217.513 403.61 211.583C405.695 209.329 408.085 206.819 408.182 203.574C408.253 200.773 407.019 197.87 405.4 195.638C403.955 193.646 401.573 191.398 398.879 191.863C397.257 192.143 396.194 193.451 394.983 194.433C393.659 195.506 392.218 196.237 390.623 196.822C386.904 198.186 383.785 199.679 380.564 202.033C377.305 204.416 374.258 207.085 371.44 209.974C366.03 215.522 360.486 221.285 357.378 228.468C356.153 231.298 355.37 234.027 354.535 236.962C353.714 239.843 351.48 239.049 348.968 238.635C345.907 238.13 342.831 237.859 339.749 237.539C338.589 237.419 336.954 237.383 336.255 236.287C335.485 235.079 336.367 233.513 336.437 232.259C336.475 231.589 336.253 231.096 336.197 230.443C336.133 229.7 336.353 229.021 336.353 228.282C336.354 226.691 335.61 225.274 334.373 224.311C332.058 222.507 328.681 221.432 325.94 220.44C322.198 219.085 318.188 218.419 314.334 217.452C309.994 216.363 305.629 215.382 301.266 214.393C296.979 213.421 292.699 212.421 288.366 211.673C285.824 211.234 283.067 211.394 280.604 210.592C277.985 209.739 278.419 207.105 278.427 204.771C278.44 200.916 277.963 196.947 277.398 193.136C276.197 185.035 273.336 177.106 270.735 169.364C268.229 161.907 265.124 154.75 260 148.699C255.011 142.808 248.888 137.477 242.537 133.099C235.919 128.538 228.554 125.242 221.646 121.17C223.156 120.016 224.957 119.03 225.824 117.252C226.804 115.245 226.389 112.844 226.347 110.699C226.3 108.277 226.226 106.152 225.361 103.845C224.888 102.581 223.059 100.185 223.339 98.8114C223.809 96.5046 228.855 94.8197 230.713 93.8705C233.628 92.3816 236.548 90.8692 239.234 88.9896C241.811 87.1865 244.236 85.0162 245.798 82.2483C246.241 81.463 246.605 80.6381 246.888 79.7819C247.203 78.8267 246.983 78.5012 247.938 78.4312C249.462 78.3191 251.747 79.8489 253.031 80.5247C259.652 84.0088 266.924 88.6976 274.736 88.3864C277.57 88.2739 280.757 87.3834 281.759 84.4273C283.078 80.5355 280.323 76.5151 277.906 73.7042C282.621 74.4452 291.315 76.7611 295.036 72.5543C297.515 69.7512 295.645 65.3018 293.566 62.8711C290.819 59.6604 286.903 57.7056 283.286 55.6626C287.724 53.9703 292.638 52.8881 296.542 50.0564C300.275 47.3484 299.814 43.1881 296.865 39.9938C293.713 36.5793 288.2 34.8305 283.865 33.5628C278.547 32.0078 273.264 32.1325 267.785 32.2368C257.95 32.4237 249.502 36.049 241.435 41.5301C237.17 44.4284 232.966 47.5562 229.184 51.0663C225.636 54.3584 221.851 57.4196 218.355 60.7473C214.968 63.9715 212.303 67.9663 208.728 70.9784C205.688 73.5395 202.356 77.1696 198.494 78.3065C194.399 79.5121 190.712 81.506 186.583 82.6928C181.898 84.0388 177.873 86.2895 173.532 88.4368C155.312 97.4485 135.752 103.313 116.543 109.783C106.718 113.092 96.8273 115.425 86.7965 117.952C81.7592 119.221 77.0817 119.898 71.8835 119.668C70.6849 119.616 69.5402 119.584 68.3581 119.751C67.4915 119.873 66.8327 120.2 66.0578 119.682C64.9444 118.938 64.5259 117.002 63.8623 115.899C67.5615 114.752 71.183 113.511 72.8709 109.72C73.9344 107.332 74.4863 104.545 74.9526 101.982C75.2029 100.603 75.2086 99.2108 75.4224 97.8305C75.5397 97.0682 75.9022 96.2716 75.8744 95.4929C75.9574 95.9261 78.714 94.5011 79.1138 94.2365C80.6562 93.2147 80.9369 91.1552 80.9243 89.4168C80.9095 87.4534 80.3167 85.2952 78.9834 83.8063C78.3524 83.1014 77.6014 82.5729 76.684 82.3074C76.033 82.1187 75.1742 82.3656 74.6001 82.1757C72.0534 81.3339 71.7683 75.0319 71.4072 72.7377C70.611 67.6825 69.8179 62.8564 68.0995 58.0107C64.9666 49.1763 60.9344 40.5905 56.1317 32.5471C52.0167 25.6548 47.9054 17.2273 38.8576 17.129H38.5791ZM116.795 229.349C120.458 229.983 123.966 231.278 127.504 232.376C130.808 233.402 134.156 234.055 137.545 234.721C144.291 236.049 151.184 237.263 157.832 238.994C159.703 239.481 160.688 240.58 162.321 241.345C163.532 241.911 164.669 241.337 165.928 241.289C168.67 241.184 171.712 242.079 174.349 242.745C180.575 244.318 186.098 247.05 191.732 250.07C192.236 250.34 195.645 251.9 195.483 252.545C195.352 253.073 191.019 251.657 190.33 251.552C186.841 251.021 183.433 249.921 179.969 249.238C177.127 248.677 174.252 248.297 171.421 247.674C168.271 246.981 161.561 244.572 161.295 249.774C161.006 255.397 167.215 257.126 170.948 259.749C170.532 260.467 164.544 258.101 163.802 257.862C161.255 257.041 158.893 255.561 156.301 254.931C151.791 253.834 152.337 258.816 154.827 261.032C157.594 263.493 162.169 264.237 163.701 268.026C161.689 268.751 159.059 267.388 157.211 266.711C154.784 265.821 152.348 264.945 149.907 264.097C144.426 262.192 139.221 259.569 133.711 257.754C122.406 254.033 110.457 252.965 98.64 252.304C99.693 248.219 100.845 244.158 101.791 240.047C102.196 238.287 102.567 236.519 102.873 234.739C103.087 233.502 102.905 230.54 103.758 229.564C104.796 228.375 107.5 230.045 108.971 230.013C110.413 229.982 111.465 229.238 112.797 229.003C114.061 228.781 115.558 229.134 116.795 229.349ZM329.204 252.993C329.204 254.946 329.543 257.314 326.974 257.542C324.897 257.727 320.833 257.964 319.176 256.487C320.764 255.713 322.569 255.578 324.255 255.132C326.013 254.666 327.636 253.902 329.204 252.993ZM286.811 217.415C287.593 217.42 288.911 218.289 289.624 218.532C290.928 218.975 292.253 219.349 293.585 219.702C297.586 220.761 302.737 220.926 304.574 225.221C305.491 227.364 306.127 232.876 309.313 232.856C312.145 232.838 313.842 228.75 315.862 227.296C317.95 225.793 321.261 226.816 323.513 227.469C325.802 228.131 329.353 228.982 329.096 231.882C328.912 233.967 328.535 235.865 328.553 237.995C328.575 240.707 328.804 243.412 328.804 246.124C327.197 243.923 325.796 239.497 322.949 238.612C320.074 237.718 318.447 242.742 317.699 244.668C316.772 247.053 315.607 249.759 315.536 252.345C315.514 253.157 316.007 255.387 315.442 256.055C314.941 256.647 313.014 256.218 312.391 256.153C308.537 255.752 304.703 255.252 300.836 254.918C298.85 254.746 298.31 254.31 298.504 252.174C298.657 250.497 298.704 248.898 298.494 247.214C297.555 239.695 292.925 232.817 285.096 231.512C280.379 230.725 274.869 231.3 270.16 232.056C268.344 232.347 266.373 233.226 264.529 233.15C263.167 233.093 263.606 233.016 263.327 231.733C263.131 230.837 262.714 230.072 262.032 229.45C261.493 228.959 260.809 229.237 260.301 228.595C259.933 228.13 259.988 227.497 259.815 226.962C259.476 225.92 258.865 224.514 257.646 224.251C255.686 223.828 253.602 226.453 252.613 227.806C251.59 229.206 251.281 233.385 249.637 233.932C247.74 234.563 245.484 232.077 245.088 230.51C244.556 228.403 245.226 226.124 245.547 224.038C245.569 223.888 245.663 222.502 245.766 222.411C246.042 222.167 248.128 222.236 248.497 222.217C250.314 222.131 252.134 222.127 253.953 222.122C261.084 222.104 268.068 221.403 275.151 220.656C274.123 222.333 272.361 225.086 274.169 226.857C275.509 228.168 277.927 227.51 279.61 227.781C281.987 228.162 285.994 230.418 288.26 228.769C291.452 226.444 287.841 222.449 286.655 220.252C286.402 219.781 285.46 218.123 285.859 217.571C286.205 217.092 286.306 217.411 286.811 217.415ZM339.982 243.255C341.612 243.752 343.254 244.23 344.92 244.599C346.873 245.031 349.902 244.611 350.853 246.761C351.576 248.395 351.217 251.031 350.629 252.658C349.957 254.522 348.378 255.002 346.514 255.144C344.339 255.31 342.136 254.959 339.987 254.662C339.14 254.544 338.237 254.333 337.376 254.332C336.866 254.33 335.835 254.797 335.381 254.415C334.793 253.92 335.18 251.109 335.226 250.435C335.34 248.765 335.657 247.118 335.744 245.446C335.805 244.246 335.353 242.614 336.76 242.358C337.637 242.198 339.22 243.023 339.982 243.255ZM208.344 210.21C209.562 210.421 210.773 210.572 212.01 210.553C212.773 210.541 213.685 210.282 214.39 210.7C215.691 211.473 215.497 213.507 215.453 214.776C215.399 216.317 215.264 217.88 215.1 219.412C214.943 220.878 214.139 223.291 215.274 224.546C216.075 223.67 216.47 220.804 218.016 220.908C219.716 221.023 218.93 223.739 218.779 224.712C217.946 230.088 216.996 235.468 216.252 240.86C215.898 243.423 215.441 245.967 215.204 248.543C215.046 250.272 214.992 251.829 213.06 252.187C211.269 252.519 209.257 251.952 207.447 251.909C205.584 251.864 204.516 251.737 203.444 250.053C206.011 249.491 210.078 249.835 211.524 247.12C213.21 243.952 209.654 241.102 207.904 238.937C206.56 237.274 203.814 231.746 201.32 235.029C200.422 236.211 200.26 238.015 199.807 239.39C199.069 241.625 198.168 243.827 197.284 246.006C189.197 241.831 180.899 238.067 172.078 235.724C174.327 231.923 177.111 228.501 178.794 224.381C180.68 219.765 182.242 215.022 184.171 210.42C187.228 212.204 190.496 207.879 193.541 207.704C198.35 207.429 203.629 209.393 208.344 210.21ZM256.25 241.334C257.926 242.333 260.393 244.275 260.795 246.283C261.49 249.754 257.529 247.433 256.306 246.674C253.746 245.083 251.237 244.575 248.297 245.555C244.527 246.812 241.052 248.933 237.005 247.322C234.992 246.519 230.526 244.805 231.731 241.73C232.562 239.61 234.993 241.428 236.278 242.188C239.643 244.178 242.429 242.917 245.791 241.481C249.154 240.044 252.94 239.363 256.25 241.334ZM375.656 223.521C377.002 225.429 374.265 225.017 373.064 225.203C370.552 225.591 367.965 227.594 368.657 230.429C369.332 233.192 371.977 234.92 372.481 237.821C372.913 240.312 372.496 243.465 370.091 244.832C368.74 245.6 365.787 245.917 364.427 245.034C362.35 243.687 364.929 241.681 366.303 241.014C368.123 240.13 369.594 239.651 368.693 237.327C367.594 234.495 365.461 232.322 365.651 229.081C365.807 226.396 367.225 223.345 369.807 222.229C371.655 221.431 374.395 221.734 375.656 223.521ZM191.882 215.29C189.555 215.191 189.462 218.003 189.58 219.386C189.74 221.277 189.397 223.292 189.357 225.189C189.304 227.701 188.779 235.929 193.221 234.707C196.078 233.921 198.429 231.183 200.726 229.424C202.839 227.805 208.21 225.862 208.559 222.792C208.951 219.325 204.716 218.676 202.289 218.125C198.825 217.338 195.461 215.444 191.882 215.29ZM203.216 123.9C206.906 124.256 210.575 124.804 214.087 126.03C216.463 126.859 220.112 127.454 221.796 129.488C223.252 131.248 222.621 133.756 223.094 135.836C223.734 138.648 225.676 138.264 227.559 136.507C229.813 134.405 230.465 132.882 233.602 134.856C240.097 138.94 245.247 144.97 250.399 150.556C246.415 151.762 238.6 152.054 237.276 157.032C236.553 159.753 238.733 161.733 240.693 163.218C243.222 165.136 245.863 166.909 248.337 168.904C250.646 170.765 255.824 178.176 257.289 171.661C258.196 167.627 256.496 163.459 257.217 159.475C260.35 164.525 263.531 169.564 266.403 174.77C268.848 179.201 270.269 183.941 271.442 188.841C269.614 188.96 267.711 188.033 265.904 188.581C264.164 189.108 263.35 190.754 263.227 192.46C263.02 195.351 264.355 198.294 265.027 201.071C265.488 202.978 266.017 207.306 268.34 207.926C270.987 208.633 272.649 204.561 273.829 202.906C274.953 204.633 274.934 207.161 275.099 209.141C275.211 210.503 275.971 213.048 274.439 213.801C273.006 214.506 269.984 213.623 268.451 213.558C265.607 213.437 262.708 213.207 259.863 213.291C257.175 213.37 253.221 214.807 252.171 211.503C251.456 209.254 250.826 201.172 247.013 205.557C245.319 207.504 243.994 209.724 242.358 211.709C240.707 213.71 239.207 213.841 236.742 213.74C231.862 213.54 227.097 214.477 222.323 215.234C218.133 215.897 218.683 212.341 218.745 209.176C218.84 204.269 217.867 199.138 217.337 194.258C216.075 182.654 213.485 171.189 209.5 160.214C212.833 159.079 218.809 163.659 221.273 160.181C223.299 157.322 220.697 153.383 219.637 150.71C218.315 147.376 217.647 143.892 215.492 140.937C214.811 140.004 213.844 138.753 212.527 139.068C211.397 139.337 210.947 140.779 210.311 141.592C208.293 144.172 205.715 146.107 203.921 148.922C202.823 150.644 201.97 152.484 201.613 154.506C201.515 155.062 201.639 156.2 201.248 156.666C200.035 158.111 196.214 158.09 194.516 158.976C188.717 162.002 186.679 170.811 184.428 176.365C183.793 177.929 183.164 179.497 182.827 181.155C182.602 182.263 182.613 183.672 182.012 184.666C180.7 186.836 176.623 184.898 174.623 184.562C171.27 183.999 167.934 183.461 164.567 182.989C162.514 182.701 159.524 181.956 157.959 183.776C156.337 185.662 157.27 188.634 158.084 190.657C159.414 193.961 161.112 197.117 162.515 200.39C163.634 203.001 164.191 206.365 166.341 208.377C168.204 210.12 171.287 210.62 173.48 209.201C174.731 208.391 177.945 200.559 178.792 200.909C177.262 206.959 175.018 213.127 172.646 218.901C171.919 220.674 170.668 224.29 168.829 225.252C167.304 226.05 163.843 224.543 162.283 224.251C160.804 223.974 157.883 222.772 156.469 223.652C154.754 224.72 154.545 227.566 154.353 229.333C154.21 230.644 154.469 231.622 152.875 231.556C151.752 231.511 150.619 230.963 149.541 230.688C147.039 230.049 144.442 229.627 141.895 229.216C136.004 228.264 130.116 227.316 124.227 226.34C119.165 225.502 114.169 225.507 109.595 223.106C107.277 221.889 104.619 221.517 102.15 220.703C99.7012 219.896 97.2606 219.373 94.6978 219.069C89.0964 218.407 83.6457 217.758 78.1099 216.623C75.0804 216.002 72.0565 215.352 69.043 214.656C66.3607 214.037 63.7675 213.053 61.0983 212.446C58.8775 211.941 57.0535 212.32 56.1022 209.799C55.4199 207.992 55.5785 205.966 55.4034 204.075C54.6024 195.431 57.6294 186.738 58.2487 178.142C58.4494 175.358 58.5112 172.565 58.7202 169.784C58.8158 168.509 58.758 164.798 60.2452 164.11C60.3803 165.13 60.2751 166.845 61.4333 167.35C60.8675 167.103 61.6102 170.115 61.6502 170.417C61.8084 171.619 61.4138 172.906 61.6219 174.085C61.4568 174.5 61.5289 174.813 61.8375 175.023C62.0479 175.193 62.2013 175.409 62.2969 175.669C62.3116 176.51 62.0652 176.015 62.0535 176.305C61.937 179.198 62.4259 182.196 62.2169 185.159C61.9957 188.292 61.2964 191.364 60.7654 194.453C60.2886 197.226 59.7749 200.004 59.3773 202.789C59.0983 204.744 58.8914 206.988 59.9431 208.767C61.9401 212.145 67.7214 211.778 71.0887 212.33C76.6853 213.249 82.2898 214.078 87.9069 214.859C90.0633 215.158 92.2458 215.842 94.4275 215.876C96.7582 215.913 98.0055 214.971 99.4748 213.251C102.435 209.786 104.344 205.851 106.81 202.082C108.195 199.964 109.347 199.406 111.679 198.76C113.845 198.16 115.583 196.58 117.344 195.265C121.045 192.505 125.825 189.503 128.253 185.438C130.809 181.159 127.207 179.739 123.759 178.572C124.598 176.342 126.244 174.55 127.6 172.631C129.141 170.45 130.539 168.184 132.199 166.084C135.582 161.805 138.96 157.548 142.243 153.188C145.05 149.463 147.886 145.933 151.467 142.915C155.064 139.883 159.069 137.399 163.019 134.861C165.082 133.535 168.705 130.147 171.313 130.494C173.842 130.83 174.843 135.542 175.475 137.522C176.2 139.795 176.456 142.963 178.146 144.752C180.629 147.382 183.207 143.24 184.393 141.331C186.563 137.835 188.783 134.37 190.95 130.871C191.938 129.275 193.364 127.757 193.95 125.949C193.957 125.927 194.232 124.372 193.954 124.589L193.936 124.606L193.954 124.586C194.574 123.972 196.863 123.844 197.719 123.77L197.798 123.763C199.599 123.593 201.421 123.727 203.216 123.9ZM227.404 221.938C229.478 221.925 231.546 222.166 233.611 222.335C235.424 222.483 237.087 222.206 238.897 222.097C241.137 221.962 242.245 222.197 241.729 224.51C241.354 226.193 240.903 228.436 239.175 229.147C236.84 230.108 233.696 229.979 231.208 230.343C229.382 230.61 227.561 230.851 225.742 231.156C224.534 231.359 223.914 231.57 223.349 230.202C222.876 229.055 223.181 227.522 223.342 226.338C223.466 225.429 223.392 223.83 223.821 223.021C224.462 221.814 226.142 221.945 227.404 221.938ZM130.701 198.87C127.653 201.656 125.602 205.217 123.301 208.595C121.896 210.657 119.147 213.945 121.143 216.445C122.844 218.576 126.798 218.089 129.177 218.191C132.916 218.352 135.969 220.042 139.527 220.913C148.487 223.108 141.045 208.047 139.804 204.904C138.933 202.699 138.035 200.504 136.981 198.378C136.506 197.42 135.558 194.625 134.377 194.259C132.665 193.729 131.784 197.879 130.701 198.87ZM207.685 167.204C209.109 169.927 209.34 173.694 210.015 176.668C212.079 185.758 213.286 195.017 214.235 204.282C209.515 202.411 204.534 202.281 199.551 201.823C195.941 201.491 192.626 201.111 189.015 201.265C188.4 201.291 186.629 201.603 186.122 201.08C185.441 200.378 186.266 198.418 186.467 197.68C187.562 193.667 188.043 189.521 189.287 185.533C190.555 181.466 192.096 177.405 193.736 173.473C194.936 170.597 196.583 167.793 199.49 166.382C202.035 165.148 206.105 164.185 207.685 167.204ZM227.12 184.897C225.176 187.829 222.713 190.393 220.814 193.351C219.467 195.45 217.89 199.332 221.125 200.666C222.26 201.134 223.6 200.932 224.79 200.952C226.629 200.984 228.451 201.142 230.294 201.098C232.036 201.057 233.763 200.845 235.501 200.755C236.597 200.698 237.973 200.782 238.938 200.153C241.525 198.465 239.654 195.019 238.821 192.815C237.936 190.473 236.742 188.258 235.589 186.039C234.79 184.499 233.594 181.363 231.777 180.735C229.624 179.992 228.017 183.545 227.12 184.897ZM132.836 151.685C128.562 156.654 124.852 162.074 121.358 167.61C119.652 170.311 117.997 173.044 116.343 175.778C115.262 177.567 114.45 179.855 113.132 181.475C110.126 185.17 109.29 177.107 108.847 175.355C107.212 168.892 105.188 162.481 103.388 156.059L105.233 156.059C112.589 156.055 119.641 155.946 126.802 153.779C128.83 153.166 130.678 151.835 132.836 151.685ZM148.372 152.938C146.045 154.656 131.151 164.745 137.416 168.638C138.713 169.444 140.831 169.078 142.296 169.194C144.174 169.342 146.081 169.524 147.936 169.856C150.337 170.287 152.67 171.039 155.082 171.419C157 171.722 159.541 172.076 161.255 170.881C164.082 168.911 162.366 165.041 161.433 162.536C160.106 158.977 158.85 154.212 155.558 152.092C154.793 151.599 153.854 149.838 153.03 149.676C151.74 149.423 149.316 152.241 148.372 152.938ZM66.2012 69.2488C67.3242 70.108 67.3755 71.8924 67.6667 73.1518C68.6462 77.3882 70.0135 81.5121 70.8249 85.7936C71.6158 89.9696 71.8644 94.0809 71.4763 98.3129C71.2173 101.136 71.1873 104.609 69.4715 107.013C67.4181 109.889 63.3521 109.741 60.2769 110.593C57.3182 111.413 54.3847 113.951 57.612 116.59C58.7589 117.527 60.2647 117.68 61.3986 118.583C62.7971 119.698 63.6002 121.695 64.1943 123.328C64.6836 124.673 64.6693 124.93 63.2078 125.405C62.5403 125.622 61.8658 125.76 61.1635 125.701C59.5641 125.568 58.1374 124.512 56.7984 123.719C53.3834 121.695 49.4391 118.993 45.3617 118.687C44.0584 118.59 42.5769 119.123 41.3096 118.7C40.1288 118.305 40.4912 118.063 40.2861 116.965C39.4739 112.612 39.144 108.34 36.9246 104.402C35.8289 102.459 32.9329 98.4841 30.9915 101.509C30.181 102.773 29.8877 103.39 28.0894 103.002C26.6261 102.687 25.0185 101.53 25.3088 99.8396C25.5822 98.2451 27.6791 97.1595 28.9498 96.4607C30.6426 95.5307 31.8294 95.638 33.6725 95.4177C38.7368 94.8123 35.1862 87.4055 34.4561 84.6263C33.9972 82.8797 33.4604 80.622 34.6651 79.0449C36.4987 76.6459 40.493 77.4347 43.0093 77.775C46.4891 78.2457 50.2878 78.4964 53.5446 76.9171C56.9901 75.2466 58.4586 71.4787 61.6893 69.6469C62.8831 68.9698 64.9748 68.3092 66.2012 69.2488ZM51.0805 99.8469C48.6863 99.8148 49.8502 103.228 50.5055 104.376C51.8866 106.797 54.8449 107.733 57.4424 106.84C59.4972 106.134 61.7197 103.015 58.5016 102.498C56.9583 102.25 55.4307 102.351 53.9683 101.617C53.1352 101.199 52.0583 99.86 51.0805 99.8469ZM57.0869 81.6942C55.5993 82.5973 58.1382 88.3652 58.5658 89.5325C59.262 91.4378 59.8818 92.6677 58.1104 94.1361C56.8788 95.1574 54.4494 96.0388 55.6093 98.074C56.6827 99.9571 60.3659 99.1674 61.8635 98.2461C64.0404 96.9062 63.3989 94.34 62.9187 92.2339C62.6049 90.8541 59.7357 80.0863 57.0869 81.6942ZM291.331 43.823C286.743 45.7826 282.052 47.5527 277.198 48.7335C272.956 49.7656 268.785 50.8786 264.413 50.6361C260.368 50.4123 259.886 54.3858 262.196 57.1376C263.451 58.6326 264.908 58.5952 266.737 58.653C268.878 58.7208 270.823 59.3149 272.888 59.8468C276.033 60.6569 279.217 61.3449 282.265 62.4883C283.838 63.0784 285.39 63.7725 286.793 64.7051C287.674 65.2918 289.642 66.3487 288.601 67.1684C287.097 68.3526 282.631 66.7303 280.841 66.6234C276.672 66.3748 272.511 65.9985 268.365 65.4765C266.335 65.2205 264.155 64.9676 262.232 64.2301C260.974 63.7477 259.581 62.55 258.156 62.8542C255.151 63.4961 256.64 68.0019 258.005 69.4678C260.031 71.6447 263.107 72.606 265.725 73.8428C267.555 74.7077 269.373 75.6234 271.15 76.5912C271.989 77.0484 275.9 78.7611 275.776 80.0614C275.646 81.4282 272.559 80.7389 271.795 80.6146C266.699 79.7859 262.101 77.8154 257.393 75.7989C255.332 74.9163 253.242 74.0692 251.224 73.0905C249.815 72.4065 248.429 71.3644 246.872 71.0536C243.201 70.3205 243.361 74.4208 241.916 76.636C237.62 83.2191 229.318 86.0275 222.86 89.8319C220.416 91.2708 218.086 92.9279 215.844 94.6615C214.242 95.8992 213.602 97.6028 211.814 95.9705C210.323 94.6098 209.605 92.6141 208.649 90.8836C207.537 88.8688 206.052 87.09 204.912 85.0918C203.227 82.1396 202.723 79.3239 206.422 78.2374C210.306 77.097 213.379 75.3965 216.68 72.9702C224.78 67.0154 231.501 59.4114 239.578 53.411C247.061 47.8517 254.996 42.6348 264.376 41.142C273.267 39.7266 283.022 40.0751 291.331 43.823ZM48.6494 86.5837C48.8393 88.223 49.243 91.7192 51.5203 91.8501C54.286 92.0087 52.4286 83.6067 50.8618 82.6611C48.3534 81.147 48.4886 85.1947 48.6494 86.5837ZM74.3846 85.9145C77.837 86.2004 78.8209 89.9818 75.3702 91.3208L74.3846 85.9145ZM61.5836 82.5957C62.0269 84.3119 61.8691 87.0659 63.2464 88.3832C65.1877 90.2393 66.033 87.5153 66.0186 85.9621C66.0047 84.4258 65.2433 80.5831 63.1873 80.3806C61.4306 80.2076 62.8926 82.2441 61.5836 82.5957ZM24.3253 44.4132C25.5874 47.0394 24.2306 49.6313 23.4753 52.2128C25.0246 52.7121 27.1124 52.3345 28.0585 53.972C28.6547 55.0042 28.5509 56.5583 28.3723 57.676C28.2258 58.593 27.474 59.8277 28.0998 60.6786C28.919 61.7925 30.9524 61.2775 31.856 62.5165C33.2292 64.4009 32.4587 68.7051 30.5317 70.1236C27.8234 72.1162 29.4396 67.2262 29.6052 66.3357C30.0207 64.1049 27.7095 64.4083 26.1311 63.5074C25.2841 63.0241 25.1328 62.9307 24.9386 61.899C24.7591 60.9485 24.8542 60.1945 25.0807 59.1702C25.849 55.6947 24.5057 56.2623 21.7447 55.4966C19.3632 54.8356 19.554 52.9325 20.1589 50.9321C20.6335 49.3641 22.0481 46.7917 20.5157 45.4549C19.9077 44.9243 18.9842 45.2598 18.853 44.1524C18.7643 43.4049 19.7674 42.1794 20.2941 41.7496C22.1094 40.2676 23.5874 42.8773 24.3253 44.4132Z" fill="black"/>
</g>
</svg>
