<svg width="36" height="36" viewBox="0 0 36 36" fill="none" xmlns="http://www.w3.org/2000/svg">
<path d="M23 8H13C10.2386 8 8 10.2386 8 13V23C8 25.7614 10.2386 28 13 28H23C25.7614 28 28 25.7614 28 23V13C28 10.2386 25.7614 8 23 8Z" stroke="#079911" stroke-width="2" stroke-linecap="round" stroke-linejoin="round"/>
<path d="M22 17.3698C22.1234 18.2021 21.9812 19.052 21.5937 19.7988C21.2062 20.5456 20.5931 21.1512 19.8416 21.5295C19.0901 21.9077 18.2384 22.0394 17.4077 21.9057C16.5771 21.7721 15.8097 21.3799 15.2148 20.785C14.6199 20.1901 14.2277 19.4227 14.094 18.592C13.9604 17.7614 14.092 16.9097 14.4703 16.1582C14.8485 15.4067 15.4541 14.7936 16.2009 14.4061C16.9477 14.0186 17.7977 13.8764 18.63 13.9998C19.4789 14.1257 20.2648 14.5213 20.8716 15.1281C21.4785 15.735 21.8741 16.5209 22 17.3698Z" stroke="#079911" stroke-width="2" stroke-linecap="round" stroke-linejoin="round"/>
<path d="M23.5 12.5H23.51" stroke="#079911" stroke-width="2" stroke-linecap="round" stroke-linejoin="round"/>
<circle cx="18" cy="18" r="17" stroke="#079911" stroke-width="2"/>
</svg>
