<svg width="129" height="29" viewBox="0 0 129 29" fill="none" xmlns="http://www.w3.org/2000/svg">
<path d="M13.936 19.736H6.832L5.512 23H0.664L8.08 6.2H12.76L20.2 23H15.256L13.936 19.736ZM12.544 16.232L10.384 10.856L8.224 16.232H12.544ZM21.5472 6.2H26.2992V19.232H34.3152V23H21.5472V6.2ZM42.652 14.408H49.66V17.912H42.652V14.408ZM59.4691 6.2H64.2211V23H59.4691V6.2ZM67.6019 6.2H72.3539V19.232H80.3699V23H67.6019V6.2ZM97.4183 23L97.3703 14.096L93.0503 21.344H90.9383L86.6423 14.336V23H82.2503V6.2H86.1623L92.0663 15.896L97.8263 6.2H101.738L101.786 23H97.4183ZM112.901 23.336C110.405 23.336 108.461 22.656 107.069 21.296C105.693 19.936 105.005 18.008 105.005 15.512V6.2H109.757V15.368C109.757 18.056 110.821 19.4 112.949 19.4C115.061 19.4 116.117 18.056 116.117 15.368V6.2H120.797V15.512C120.797 18.008 120.101 19.936 118.709 21.296C117.333 22.656 115.397 23.336 112.901 23.336Z" fill="black"/>
<circle cx="126" cy="20" r="3" fill="#079911"/>
</svg>
