<svg width="572" height="443" viewBox="0 0 572 443" fill="none" xmlns="http://www.w3.org/2000/svg">
<circle cx="308.5" cy="189.5" r="189.5" fill="#EAF5EB"/>
<path fill-rule="evenodd" clip-rule="evenodd" d="M169.395 249.209C172.046 269.091 174.697 288.972 177.348 308.854L179.488 324.909C179.759 326.935 179.503 330.931 180.533 332.745C180.896 333.384 181.852 333.688 182.555 334.065C184.974 335.364 187.393 336.663 189.812 337.961C210.273 348.947 230.734 359.932 251.194 370.917C270.831 381.46 290.468 392.002 310.104 402.545C312.136 403.636 315.423 406.483 317.617 405.733C319.702 405.02 321.833 403.261 323.726 402.153C327.36 400.023 330.994 397.893 334.628 395.763C356.618 382.877 378.607 369.989 400.596 357.103C409.669 351.786 418.741 346.469 427.814 341.152C430.296 339.697 432.779 338.243 435.261 336.788C436.559 336.027 436.728 336.054 437.239 334.762C439.149 329.934 440.034 324.404 441.386 319.394C442.876 313.874 444.366 308.353 445.855 302.832C446.52 300.369 446.208 300.051 445.124 297.673C442.98 292.967 440.836 288.26 438.692 283.554C433.934 273.109 429.176 262.663 424.416 252.217C422.492 247.993 417.857 245.021 414.52 241.914L362.706 193.674C361.39 192.449 360.074 191.224 358.758 189.998C358.542 197.363 357.086 205.28 359.221 212.394C362.724 224.069 366.226 235.744 369.729 247.419C371.422 253.063 373.114 258.706 374.807 264.349C375.122 265.397 377.037 269.555 376.525 270.477C376.241 270.988 373.822 271.505 373.298 271.704C371.048 272.561 368.797 273.417 366.546 274.273C360.275 276.659 354.005 279.045 347.734 281.43C342.094 283.576 336.454 285.722 330.814 287.867C328.901 288.595 326.655 289.942 324.635 289.83C322.828 289.73 320.773 288.835 319.025 288.385C315.951 287.593 312.877 286.801 309.803 286.009C303.764 284.454 297.725 282.899 291.687 281.343C284.893 279.593 279.156 274.454 273.346 270.65C263.359 264.111 253.373 257.572 243.387 251.034C241.101 249.536 241.092 248.682 240.181 245.949C238.134 239.807 236.086 233.665 234.039 227.522C232.946 224.243 231.601 220.949 230.776 217.592C229.414 212.05 228.606 206.314 227.527 200.711C227.202 199.021 226.877 197.33 226.551 195.64C222.369 197.337 218.187 199.035 214.004 200.732C213.398 200.978 210.444 201.711 210.182 202.314C210.015 202.695 210.894 204.424 211.02 204.795C214.488 215.066 217.955 225.337 221.424 235.607C222.515 238.838 223.605 242.068 224.696 245.299C222.089 241.203 219.482 237.106 216.875 233.01C214.828 239.899 212.779 246.789 210.731 253.678C205.89 248.092 201.049 242.506 196.208 236.92C194.532 242.506 192.856 248.092 191.18 253.678C185.967 246.789 180.753 239.899 175.54 233.01C174.92 236.605 174.3 240.2 173.68 243.795C173.493 244.881 173.53 247.994 172.808 248.853C172.213 249.56 170.5 249.209 169.395 249.209Z" fill="#079911"/>
<path fill-rule="evenodd" clip-rule="evenodd" d="M499.487 292.185C499.194 301.544 499.398 313.692 494.276 321.921C493.449 323.249 490.649 327.386 490.336 323.747C490.029 320.174 490.909 316.636 490.038 313.022C489.572 311.088 488.005 306.864 485.327 308.61C483.962 309.501 483.602 311.699 483.068 313.086C482.278 315.139 481.393 317.16 480.562 319.197C477.657 326.308 474.647 334.795 468.191 339.501C469.036 333.369 471.339 326.821 469.79 320.622C469.263 318.51 467.664 314.652 464.912 315.89C462.23 317.096 460.491 322.477 459.226 324.874C455.388 332.139 451.462 339.268 447.142 346.262C444.968 349.78 442.621 352.996 439.777 356.005C437.999 357.887 435.782 361.068 432.98 361.349C432.98 355.985 434.745 350.802 436.356 345.751C438.09 340.319 439.67 334.841 441.371 329.399C442.847 324.678 444.059 319.994 445.041 315.153C445.449 313.151 445.77 311.078 447.477 309.785C449.011 308.623 451.434 308.07 453.144 307.216C457.635 304.972 462.254 302.551 466.427 299.762C468.14 298.617 469.614 297.138 471.408 296.111C473.452 294.94 475.36 293.956 477.251 292.53C485.41 286.376 492.765 278.806 497.721 269.794C498.525 273.415 499.591 276.952 499.709 280.684C499.829 284.51 499.608 288.361 499.487 292.185ZM432.339 335.202C431.035 332.998 429.047 333.901 427.295 334.963C424.577 336.612 421.851 338.248 419.119 339.876C413.56 343.188 408.103 346.674 402.671 350.191C391.614 357.348 380.171 363.206 368.513 369.265C357.247 375.119 346.425 382.087 335.869 389.129C333.332 390.822 330.812 392.554 328.376 394.39C326.214 396.019 324.485 398.307 322.208 399.758C319.838 401.268 318.208 400.043 315.941 398.929C313.105 397.536 310.15 396.368 307.252 395.112C295.556 390.041 283.826 384.777 272.448 379.022C261.138 373.302 250.423 366.71 239.587 360.164C234.426 357.047 229.353 353.731 224.263 350.499C218.846 347.06 213.237 344.484 207.554 341.56C205.04 340.265 202.813 338.509 200.23 337.332C197.516 336.096 194.648 335.209 192.217 333.425C191.127 332.625 190.208 331.67 188.962 331.104C187.939 330.64 186.778 330.561 185.768 330.068C183.714 329.065 183.126 327.029 182.728 324.911C180.169 311.317 178.809 297.346 177.326 283.6C176.492 275.87 175.562 268.17 174.411 260.481C173.891 257.015 174.936 254.329 175.484 250.957C176.124 247.018 176.377 242.997 176.806 239.031C178.831 242.782 180.581 246.718 183.157 250.14C185.056 252.662 188.299 256.239 191.795 256.155C197.229 256.023 196.98 246.703 197.199 243.004C199.675 245.213 200.425 248.812 202.48 251.378C204.356 253.721 206.908 256.628 209.789 257.677C215.854 259.886 215.271 248.627 214.937 245.435C214.769 243.833 213.865 241.299 216.011 242.029C217.986 242.702 219.909 245.49 221.57 246.768C224.44 248.979 227.589 250.817 230.534 252.927C234.188 255.546 238.13 257.438 241.856 259.877C244.186 261.403 246.727 261.745 249.267 262.867C252.988 264.511 256.276 266.961 259.818 268.931C266.832 272.832 274.613 276.33 282.286 278.682C284.768 279.442 288.076 281.587 289.959 279.383C291.119 278.027 291.881 275.955 292.865 274.435C294.11 272.51 295.432 270.636 296.805 268.799C301.686 262.274 307.103 256.113 313.118 250.61C320.117 244.208 327.77 238.447 335.955 233.648C339.472 231.586 354.158 222.346 357.386 228.849C354.733 228.684 352.434 229.654 350.165 230.869C349.612 231.166 346.757 233.205 347.425 231.408C346.595 231.563 345.868 232.644 345.24 233.125C344.155 233.957 342.509 234.916 341.252 235.604C340.01 236.284 338.474 236.451 337.342 237.275C336.929 237.576 336.678 238.064 336.284 238.39L335.153 238.399C334.984 239.025 334.815 239.651 334.645 240.277C334.006 238.229 333.095 240.893 332.027 241.758C331.385 242.278 330.369 242.814 329.614 243.149C329.049 243.4 328.962 242.817 328.413 243.261C327.926 243.654 327.615 244.522 327.091 245.016C326.449 245.62 325.626 246.09 324.909 246.606C323.536 247.595 322.084 248.371 320.693 249.308C318.822 250.57 317.84 252.739 316.023 254.058C315.163 254.682 313.826 254.755 313.36 255.155C312.192 256.16 312.577 257.681 310.398 257.748C310.597 258.065 310.716 258.41 310.757 258.781C310.238 258.692 309.776 258.477 309.372 258.135C309.463 260.308 307.326 261.084 306.045 262.422C305.307 263.193 304.387 264.277 303.866 265.205C303.78 265.36 303.614 266.599 303.579 266.615C303.381 266.71 302.177 265.653 302.291 265.741C301.955 267.749 300.013 269.647 299.162 271.505C298.714 272.484 298.259 274.059 297.375 274.747C297.135 274.934 296.396 274.739 295.786 275.39C295.338 275.867 294.821 276.749 294.639 277.382C294.518 277.805 294.663 278.898 294.489 279.152C294.17 279.615 293.672 279.15 293.172 279.493C292.247 280.126 292.223 281.116 290.87 281.246C291.803 283.513 297.436 284.212 299.483 284.856C305.273 286.678 311.347 288.498 316.759 291.289C318.159 292.011 319.483 292.606 319.731 294.269C320.077 296.582 318.898 299.659 318.673 301.996C318.063 308.308 317.939 314.805 318.066 321.144C318.187 327.147 318.381 333.208 318.661 339.204C318.92 344.764 320.041 350.213 320.646 355.734C320.812 357.249 320.702 364.082 323.307 363.738C325.482 363.451 324.109 358.784 324.068 357.446C323.977 354.485 324.6 351.462 324.574 348.474C324.562 347.038 325.189 345.801 325.25 344.427C325.31 343.069 324.635 341.996 324.837 340.588C325.031 339.238 329.024 331.469 325.189 332.379C325.414 331.268 325.611 330.148 325.907 329.054C326.317 329.422 326.648 329.853 326.897 330.345C327.238 327.958 327.124 325.577 327.336 323.189C327.431 322.107 327.87 320.922 327.72 319.832C327.748 319.38 327.691 318.937 327.548 318.502C327.312 318.252 327.02 318.121 326.673 318.108C326.49 317.511 326.444 317.347 326.767 316.761C326.907 316.364 327.183 316.116 327.595 316.017C328.382 315.924 328.472 315.472 327.865 314.662C328.181 313.062 328.222 312.052 327.994 310.455C327.801 309.114 328.508 306.517 327.788 305.323C326.947 303.927 326.53 305.281 326.373 303.346C326.34 302.937 326.313 302.083 326.478 301.675C326.658 301.23 327.2 301.412 327.27 301.254C327.741 300.179 327.772 298.062 326.106 298.246C326.171 297.478 326.236 296.71 326.301 295.941C327.505 297.327 327.084 296.154 327.767 295.384C328.686 294.346 329.586 294.167 330.9 293.757C334.403 292.664 337.778 291.02 341.201 289.686C348.449 286.862 355.832 284.339 362.868 281.001C377.667 273.979 392.172 266.358 407.061 259.522C405.998 257.548 406.659 257.452 407.437 255.598C408.475 256.319 408.256 255.816 408.995 255.772C408.928 255.154 409.12 254.967 409.571 255.212C409.93 255.322 410.298 255.361 410.676 255.329C411.598 255.487 412.351 255.994 413.189 256.187C413.463 256.39 413.766 256.542 414.095 256.644C414.391 256.576 414.644 256.43 414.853 256.204C416.209 256.456 416.666 257.477 416.726 258.956C416.736 259.214 415.948 259.478 416.174 259.823C416.568 260.428 417.628 260.284 418.234 260.361C418.101 260.989 417.969 261.616 417.836 262.243C420.498 261.015 419.804 264.86 420.611 266.123C420.836 266.475 421.337 266.194 421.598 266.602C421.937 267.135 421.835 267.889 422.125 268.42C422.78 269.621 423.436 269.475 424.089 270.849C427.501 278.027 432.041 284.714 435.317 292.045C436.876 295.535 438.283 299.084 439.911 302.543C441.409 305.726 442.266 308.433 441.198 311.909C438.721 319.973 436.072 328.185 432.826 335.974C432.664 335.717 432.502 335.459 432.339 335.202ZM259.57 395.397C259.338 395.792 259.106 396.188 258.873 396.584C258.357 393.615 259.732 394.992 259.57 395.397ZM248.645 389.838C247.901 389.615 248.223 388.399 248.247 387.879C248.717 388.466 249.179 389.064 249.572 389.709C249.263 389.752 248.954 389.795 248.645 389.838ZM218.703 378.425C219.485 377.986 220.048 377.671 220.934 377.174C220.033 378.93 220.033 378.93 218.703 378.425ZM171.597 223.729C170.403 226.662 174.046 244.769 170.654 245.36C170.167 243.771 170.107 239.395 168.093 238.873C165.594 238.224 165.841 242.729 165.499 244.122C160.37 240.554 158.091 233.662 155.641 228.2C152.517 221.238 150.059 213.997 147.712 206.743C145.705 200.541 144.045 194.229 142.017 188.037C140.743 184.148 139.369 180.25 138.512 176.242C138.326 175.371 137.594 173.163 138.216 172.335C139.121 171.131 142.376 172.51 143.425 172.826C150.231 174.874 157.29 175.755 164.282 176.945C172.05 178.266 179.801 179.632 187.617 180.656C189.57 180.912 191.524 181.154 193.479 181.39C194.747 181.543 196.666 181.39 197.87 181.959C200.308 183.109 200.827 187.511 201.732 189.794C205.11 198.314 209.086 206.564 212.642 215.007C215.846 222.612 218.275 230.703 222.881 237.628C219.446 236.105 215.093 228.055 211.255 232.695C209.605 234.691 210.021 237.319 210.153 239.707C210.344 243.159 210.403 246.637 210.403 250.095C206.648 249.119 204.124 244.855 202.152 241.835C199.458 237.71 197.762 233.823 196.569 229.093C196.053 227.046 194.683 226.995 193.466 225.769C192.684 224.982 192.291 223.92 191.169 225.066C189.759 226.506 190.697 230.494 190.94 232.194C191.519 236.24 193.415 242.467 191.572 246.269C189.084 251.399 182.417 238.49 181.636 236.625C181.239 235.676 174.146 217.474 171.597 223.729ZM166.94 135.801C167.36 135.865 167.779 135.93 168.2 135.994C167.861 136.293 167.157 137.341 166.581 137.063C166.701 136.643 166.82 136.222 166.94 135.801ZM189.189 131.027C189.057 131.171 188.925 131.316 188.793 131.46C188.191 130.707 188.404 129.61 188.404 128.739C189.2 129.22 189.395 130.182 189.189 131.027ZM190.987 139.381V141.842C189.319 141.119 189.286 140.746 190.987 139.381ZM193.012 142.51C191.844 142.19 191.704 141.931 191.868 140.135C192.353 141.141 192.671 141.804 193.012 142.51ZM199.739 160.737C199.249 161.997 196.386 158.994 196.491 158.096C196.591 157.238 197.031 156.982 197.637 157.534C197.838 157.716 197.54 158.376 197.668 158.605C198.13 159.434 199.061 160.112 199.739 160.737ZM199.771 168.33C199.053 170.12 197.775 167.3 199.649 167.223C199.772 167.583 199.813 167.952 199.771 168.33ZM198.379 165.506C198.102 165.136 197.832 164.76 197.57 164.378C198.535 164.573 199.301 165.98 200.32 165.041C200.199 166.472 199.182 166.512 198.379 165.506ZM135.959 142.244C134.407 140.55 144.529 139.36 145.75 139.069C154.612 136.956 162.978 133.898 171.264 130.146C175.217 128.357 179.149 126.545 183.009 124.561C184.676 123.705 186.96 122.979 188.352 121.693C189.346 120.775 189.307 120.081 190.598 119.534C191.695 119.071 191.749 119.508 192.251 118.67C192.553 118.167 192.894 116.325 192.718 115.78C192.237 114.292 191.526 115.498 190.528 114.473C189.809 113.734 189.983 111.633 190.179 110.763C190.434 111.177 190.58 111.627 190.619 112.112C191.702 111.578 191.266 109.744 192.45 109.444C193.699 109.128 193.57 110.1 193.895 111.094C194.839 109.709 194.083 108.528 193.572 107.175C196.168 106.689 198.957 106.218 201.53 107.082C203.39 107.705 204.983 109.24 206.947 109.537C208.871 109.826 209.241 108.914 210.659 107.989C211.811 107.237 212.799 108.122 213.392 107.555C213.027 109.471 209.886 109.209 210.272 111.603C210.447 112.68 211.767 113.648 212.368 114.487C213.123 115.539 213.724 116.703 214.238 117.889C216.237 122.501 217.092 127.854 217.931 132.787C220.001 144.964 220.263 157.38 222.21 169.595C223.138 175.414 224.068 181.235 224.55 187.111C224.671 188.58 225.568 191.912 224.834 193.325C224.214 194.518 222.833 194.522 221.621 194.81C219.249 195.374 217.022 196.14 214.747 196.988C212.707 197.749 212.114 198.215 210.805 196.296C209.539 194.439 208.913 192.226 208.007 190.191C206.853 187.597 205.458 185.095 204.12 182.593C206.749 182.593 208.262 181.173 208.193 178.502C208.117 175.542 205.683 174.84 204.68 172.408C203.704 173.675 203.622 173.711 202.926 172.508C202.131 171.132 201.594 168.615 201.107 167.054C201.455 167.425 201.803 167.797 202.151 168.168C203.029 166.96 201.654 165.056 201.195 163.919C200.485 162.163 200.36 160.264 199.687 158.513C199.32 157.557 198.47 156.805 198.261 155.808C198.122 155.14 198.68 154.505 198.547 153.827C198.317 152.648 196.983 151.382 196.568 150.182C195.929 148.336 195.236 146.712 194.444 144.913C193.372 142.48 193.621 139.926 193.425 137.336C193.222 134.65 192.361 132.08 192.058 129.406C191.848 127.559 192.505 125.233 191.107 123.753C190.944 126.213 191.649 126.175 189.338 126.617C186.707 127.121 184.799 129.081 182.311 129.665C181.798 129.786 181.425 127.546 181.625 130.602C180.432 129.721 177.885 130.814 178.835 131.337C178.115 132.108 176.697 131.575 176.46 132.729C174.013 130.35 170.089 138.448 167.174 134.224C166.694 137.086 164.621 138.779 161.838 139.158C160.438 139.348 159.576 139.814 158.334 140.233C158.082 140.318 157.99 140.68 157.691 140.778C157.235 140.927 156.566 140.478 156.238 140.565C155.569 140.743 154.826 141.623 153.892 141.798C152.822 141.998 151.655 141.906 150.583 141.782C149.244 141.627 148.654 141.468 147.343 141.909C146.163 142.306 144.899 143.419 143.805 142.208C142.085 145.183 137.984 144.456 135.959 142.244ZM215.472 106.336C214.17 106.18 215.074 105.061 215.677 104.724C217.314 103.812 216.877 106.504 215.472 106.336ZM143.402 117.014C151.041 105.993 164.108 98.4205 175.605 92.0492C181.884 88.5692 188.294 85.1958 194.888 82.3475C198.166 80.9321 201.483 79.5713 204.83 78.3279C206.618 77.6637 208.427 77.0599 210.238 76.4588C210.738 76.2929 211.649 75.7835 212.173 75.8332C212.082 75.8243 213.475 76.203 213.201 76.322C214.098 75.9315 214.525 74.9132 215.579 74.506C216.765 74.048 218.275 73.8586 219.544 73.8173C220.668 73.7804 221.64 74.2446 222.71 74.2809C223.414 74.3043 224.011 73.9703 224.7 73.9212C225.053 73.8966 225.021 74.4239 225.234 74.4546C225.326 74.468 226.264 74.1155 226.273 74.1217C226.615 74.3412 226.918 75.1981 227.227 75.5327C228.113 76.4924 229.413 77.161 230.594 77.666C232.032 78.2804 235.54 78.8982 233.914 81.1717C235.069 81.0058 235.606 82.0493 234.16 82.3135C233.377 82.457 233.043 81.7398 232.461 81.2505C231.118 80.1221 227.857 78.5156 225.922 78.5882C224.833 78.629 223.992 79.4551 222.988 79.7551C222 80.05 221.511 79.5926 220.644 79.6652C219.63 79.7495 218.978 80.607 218.012 80.7595C217.108 80.9025 216.604 80.2858 215.796 80.3288C214.835 80.3796 213.904 81.2142 212.987 81.4946C211.528 81.9403 210.457 82.2442 209.032 82.9832C206.272 84.416 203.189 84.9601 200.344 86.1935C198.069 87.1794 195.49 87.6983 193.385 88.7887C191.045 90.0003 188.694 91.2074 186.402 92.524C184.746 93.4753 181.38 93.8026 179.555 93.5607C179.528 96.9224 177.874 94.5657 176.206 96.0381C176.601 96.3861 177.049 96.642 177.549 96.8056C175.742 97.5273 174.071 98.4255 172.321 99.2551C170.512 100.113 168.581 100.302 167.392 101.925C166.297 103.42 166.668 102.649 165.035 103.237C164.285 103.508 163.633 104.332 163.093 104.886C162.164 105.838 161.959 107.279 161.429 105.323C161.274 105.561 160.665 107.08 160.547 107.118C159.883 106.413 159.787 107.249 159.416 107.548C159.611 108.198 159.332 108.623 158.578 108.825C158.196 109.109 157.81 109.387 157.419 109.659C156.003 110.641 154.199 111.484 153.202 112.948C152.466 112.514 152.194 111.765 152.642 111.001C151.236 112.297 149.558 113.628 149.178 115.622C149.003 115.454 148.799 115.332 148.568 115.257C147.997 115.643 148.74 116.791 149.102 117.05C150.681 116.436 148.708 116.659 149.769 116.757C150.071 116.785 150.381 117.012 150.715 117.016C151.693 117.028 152.612 116.981 153.582 116.832C155.72 116.503 157.821 115.889 159.892 115.273C162.146 114.603 164.401 113.934 166.606 113.112C168.421 112.435 170.207 111.68 171.991 110.928C172.704 110.627 173.416 110.323 174.13 110.025C175.486 109.458 176.201 108.528 176.011 110.122C177.091 109.943 178.027 108.417 178.856 107.794C180.022 106.918 181.334 106.265 182.716 105.819C183.275 105.638 183.687 105.407 184.265 105.406C184.549 105.405 184.719 106.205 184.898 106.162C186.138 105.861 185.572 105.174 186.13 104.184C187.349 102.021 190.634 100.824 192.651 99.5952C193.931 98.8149 194.84 97.7653 196.022 96.9011C196.575 96.4973 196.977 96.3185 197.556 96.1476C197.999 96.0163 198.543 97.0352 198.831 96.0113C197.799 95.5896 196.949 95.0695 195.956 94.7617C195.254 94.5433 196.096 93.7965 194.984 94.2411C194.537 94.4199 194.383 95.2846 194.219 95.6465C192.976 94.5366 189.481 95.6868 188.007 96.1515C187.905 96.1833 187.45 95.9432 187.235 95.9577C186.384 96.0147 185.791 97.1603 185.231 97.6541C183.741 98.9663 182.125 99.5148 180.291 100.264C180.779 97.5966 184.367 96.504 186.461 95.4823C189.522 93.9886 192.372 92.0822 195.724 91.2789C197.956 90.7432 200.914 90.3125 201.878 92.9078C202.455 94.4634 202.527 98.3284 200.575 99.0461C200.369 98.32 201.029 97.6994 201.228 97.0693C199.285 97.8111 198.965 100.145 197.489 101.364C196.659 102.048 196.363 102.268 195.962 102.929C195.563 103.586 195.372 104.199 194.439 104.897C192.913 101.657 193.171 106.096 192.398 106.653C192.709 106.429 191.137 107.083 191.325 107.013C191.252 107.04 190.567 105.931 190.123 105.954C189.315 105.997 189.47 106.887 189.081 107.335C187.761 108.851 186.056 109.845 183.931 109.606C183.881 110.685 184.214 111.974 182.741 112.072L182.548 109.681C181.747 110.492 180.691 111.262 180.039 112.201C179.297 113.27 179.376 113.928 178.144 114.64C176.857 115.384 174.119 116.851 172.587 116.978C172.966 116.441 172.899 115.955 172.387 115.523C171.617 116.317 170.48 116.396 169.66 117.113C172.506 118.302 167.473 118.241 166.834 118.375C166.407 118.466 166.034 118.855 165.601 118.943C165.026 119.059 164.952 118.455 164.457 118.647C163.733 118.927 164.027 119.719 163.269 120.116C162.725 120.402 161.802 120.398 161.189 120.67C159.726 121.318 156.609 122.753 155.621 121.012C155.119 123.999 150.002 122.181 148.108 121.98C145.514 121.704 140.995 120.487 143.402 117.014ZM154.298 86.4599C154.665 86.1465 155.032 86.1694 155.4 86.5292C154.888 83.8267 158.846 82.5146 160.572 81.3655C162.863 79.8417 165.558 76.8851 168.555 77.1191C168.044 77.4978 167.534 77.8766 167.024 78.2553C167.753 78.3497 168.481 78.4441 169.209 78.5385C168.798 79.1418 168.387 79.7445 167.976 80.3472C167.303 76.6404 163.794 81.3203 162.778 82.0023C161.756 82.6888 160.736 83.2005 159.827 84.0378C158.926 84.8674 158.114 86.361 156.625 85.6148C156.489 87.7318 154.787 87.1576 153.61 88.3301C153.561 87.5944 153.982 87.0744 154.298 86.4599ZM169.846 75.8919C173.468 74.535 176.622 72.0264 180.036 70.2344C183.296 68.5223 186.622 66.9851 189.937 65.3881C191.619 64.5776 194.699 62.4817 196.621 63.5497C199.214 64.992 195.644 65.4573 194.717 65.9567C194.374 63.7358 193.172 65.7478 193.89 66.9834C191.911 66.1288 187.594 69.4725 185.706 70.3948C185.279 70.6037 185.471 70.7243 184.985 70.9701C184.865 71.0304 183.626 71.3125 183.271 71.4315C181.494 72.0264 180.323 71.5538 179.557 73.6994C179.397 73.1944 179.236 72.6889 179.076 72.1834C177.963 74.682 174.581 75.7757 172.418 77.2532C171.861 77.6341 170.269 79.1116 169.561 78.8061C168.577 78.3804 168.972 76.2186 169.846 75.8919ZM235.194 83.4251C236.723 83.5262 235.249 84.2395 235.669 84.711C235.621 84.6579 236.59 85.484 236.463 85.2573C236.634 85.5622 237.044 85.5511 237.255 86.1711C237.978 88.3033 234.819 90.5064 233.754 91.7163C231.683 94.0696 230.485 97.0497 228.327 99.3277C227.352 100.357 226.383 101.067 225.031 101.451C224.086 101.72 223.085 101.432 222.216 102.341C221.516 103.074 221.675 103.49 220.901 103.879C219.538 104.566 218.938 103.963 217.612 105.447C216.47 102.345 219.749 102.35 221.46 100.616C223.822 98.2222 226.41 95.8074 228.625 93.2468C230.592 90.9717 231.38 88.9769 232.314 86.213C232.609 85.3416 232.929 83.4731 233.741 82.9262C235.005 82.0749 234.247 83.3619 235.194 83.4251ZM242.715 164.019C246.726 159.532 251.702 155.504 257.096 152.801C259.023 151.835 261.768 150.567 263.766 152.054C265.725 153.512 265.304 156.421 264.514 158.4C263.757 158.102 264.471 155.322 264.079 154.635C263.222 153.135 261.373 153.931 260.115 154.434C258.641 155.023 257.326 155.673 256.16 156.742C255.686 157.175 254.779 157.563 254.476 157.86C254.02 157.671 253.751 157.809 253.671 158.274C253.765 158.559 253.754 158.839 253.637 159.115C253.57 159.203 252.978 158.843 252.893 158.915C252.509 159.244 252.149 159.631 251.771 159.937C251.012 160.551 250.366 160.841 249.668 161.697C248.318 163.351 246.533 164.32 245.177 165.896C244.871 166.252 244.504 167.166 244.435 167.245C243.75 168.045 242.734 168.678 241.961 169.525C240.624 170.988 239.197 171.97 237.654 173.225C236.99 173.764 236.216 174.346 235.774 175.096C235.573 175.439 235.459 177.316 235.452 177.324C233.939 178.981 234.234 175.649 234.348 175.231C235.576 170.735 239.729 167.359 242.715 164.019ZM234.458 194.422C234.646 195.128 234.801 195.711 234.992 196.428C233.793 195.444 233.793 195.444 234.458 194.422ZM233.163 196.734C232.722 197.178 232.279 197.619 231.833 198.058C230.851 197.021 233.343 196.556 233.163 196.734ZM232.54 178.88C232.071 180.778 230.353 183.079 229.172 184.577C229.302 184.412 228.165 184.744 228.035 184.82C227.614 185.063 228.621 186.642 227.164 185.937C226.647 186.229 227.665 187.421 226.962 187.955C224.931 183.327 230.477 179.317 232.624 175.882C233.674 176.846 232.804 177.816 232.54 178.88ZM219.348 203.902C220.829 204.283 221.599 204.043 222.599 202.589C223.2 201.715 223.419 200.168 224.794 201.475L225.036 199.794C226.999 200.599 226.834 203.508 227.691 205.12C228.109 203.296 229.097 198.202 232.123 199.019C235.52 199.937 229.866 205.778 229.341 207.209C228.186 205.417 228.64 207.084 227.76 207.337C227.004 207.554 225.823 206.998 224.905 207.048C222.111 207.2 219.656 208.457 217.104 209.521C216.458 207.779 215.812 206.036 215.165 204.294C216.668 204.41 219.775 200.41 220.216 203.317C219.102 203.123 218.788 203.172 218.245 204.187C218.592 204.011 218.959 203.916 219.348 203.902ZM225.62 226.643C225.615 226.629 228.51 226.808 228.768 226.713C230.749 225.99 230.016 223.743 230.421 222.155C231.238 222.906 230.805 224.276 231.057 225.248C231.352 226.389 232.208 227.362 232.288 228.583C232.468 231.342 230.204 230.73 228.488 231.623C227.022 232.386 226.859 233.345 225.621 231.289C225.286 230.733 224.565 229.283 224.639 228.572C224.711 227.867 225.828 227.281 225.62 226.643ZM227.952 238.581L227.152 237.685C229.537 238.415 228.13 237.317 228.679 235.816C230.51 237.035 232.003 238.288 233.451 235.847L235.954 245.941C234.273 246.337 232.104 243.74 230.951 242.848C230.286 242.332 226.59 240.346 228.809 239.768C228.523 239.372 228.238 238.977 227.952 238.581ZM244.288 206.885C242.899 208.207 241.499 208.946 239.987 209.985C238.66 210.896 239.117 211.942 237.967 212.959C237.203 213.635 235.413 214.323 234.469 214.839C232.789 215.757 231.283 215.932 229.554 214.904C230.025 218.692 227.431 218.989 224.201 219.739C222.661 220.097 221.75 220.644 220.64 219.233C219.879 218.268 219.582 216.52 220.527 215.637C222.03 214.234 226.031 214.718 227.958 213.835C229.421 213.166 230.911 209.395 232.715 210.768C231.784 209.285 232.868 208.885 233.677 207.828C234.564 206.669 235.108 205.314 236.026 204.164C237.768 201.979 240.444 199.781 242.919 198.463C245.097 197.304 246.241 198.124 246.567 200.559C246.731 201.783 246.725 203.606 246.04 204.692C245.821 205.038 245.1 205.042 244.882 205.367C244.501 205.935 244.85 206.35 244.288 206.885ZM269.845 177.507C271.583 178.852 271.414 181.679 271.687 183.604C272.073 186.317 271.793 188.942 271.752 191.706C271.709 194.601 270.288 196.487 269.619 199.2C268.877 202.219 267.917 203.818 266.251 206.351C268.058 206.635 265.368 212.033 264.924 212.732C264.443 213.491 260.56 216.987 262.225 216.987C261.306 218.198 260.307 219.44 259.392 220.618C259.031 221.082 258.4 221.264 258.116 221.591C257.538 222.256 257.502 222.85 257.089 223.626C256.46 224.804 256.253 224.49 255.427 225.344C254.857 225.935 254.483 226.714 253.922 227.28C252.117 229.102 251.887 227.609 250.878 226.206C250.723 226.581 250.448 226.817 250.053 226.913C249.737 225.324 251.913 223.719 252.828 222.754C254.327 221.172 255.696 219.429 257.021 217.699C259.859 213.992 262.409 210.054 264.421 205.836C266.562 201.346 268.272 196.488 269.16 191.59C269.837 187.857 270.48 181.453 265.492 180.504C261.864 179.813 257.864 182.017 254.874 183.802C253.051 184.889 251.218 185.97 249.482 187.193C247.597 188.519 245.969 190.396 243.923 191.46C245.042 190.878 241.35 192.63 241.915 192.137C241.651 192.367 241.879 193.07 241.704 193.388C241.476 193.8 240.684 194.208 240.329 194.475C239.391 195.18 237.891 195.901 237.465 197.065C231.512 192.819 243.349 185.28 246.384 183.36C252.402 179.552 262.876 172.112 269.845 177.507ZM285.901 136.209C285.844 133.151 288.335 128.977 290.017 126.483C290.839 125.263 292.154 125.311 292.636 123.872C292.914 123.043 292.549 122.174 292.632 121.341C292.744 120.216 293.232 119.313 293.795 118.346C298.885 109.6 305.07 101.859 311.658 94.2283C314.906 90.4667 317.985 86.5605 321.488 83.0268C322.952 81.551 326.885 76.2455 329.135 76.7761C330.326 77.0571 331.02 78.8753 331.557 79.8031C332.447 81.3376 333.425 82.7749 334.506 84.1859C337.358 87.9111 340.649 91.1811 344.535 93.8216C346.962 95.4717 349.413 97.0754 351.786 98.8043C353.74 100.227 356.693 101.854 358.088 103.851C359.483 105.849 357.434 107.541 356.314 109.2C354.574 111.78 352.973 114.454 351.225 117.031C350.531 116.532 350.71 115.517 350.234 114.878C349.812 114.311 349.215 114.08 348.631 113.73C347.514 113.06 346.417 112.241 345.407 113.363C343.64 115.327 346.07 119.97 348.688 119.461C348.997 121.399 343.768 124.591 342.457 125.658C338.435 128.93 334.287 131.775 328.974 132.071C326.824 132.191 324.587 132.028 322.544 131.308C321.565 130.964 320.483 130.491 319.733 129.739C318.835 128.84 318.606 127.501 317.734 126.611C316.979 125.839 315.941 125.72 315.186 124.944C314.429 124.168 314.056 122.943 313.749 121.938C313.149 119.974 313.036 117.904 312.459 115.936C312.112 114.752 311.827 113.17 310.696 114.307C309.053 115.959 309.878 121.155 310.299 123.134C310.901 125.959 312.311 128.235 313.789 130.665C315.391 133.301 315.982 135.746 316.269 138.796C316.807 144.506 318.445 149.984 320.994 155.121C322.068 157.284 323.353 159.318 324.511 161.431C325.053 162.417 326.265 165.781 327.737 165.763C330.089 165.734 326.739 158.876 326.274 157.725C323.698 151.348 321.237 144.646 320.686 137.742C324.378 138.693 328.404 139.596 332.228 138.993C329.759 144.513 332.338 150.009 332.022 155.691C331.865 158.541 331.751 161.17 331.809 164.011C331.861 166.502 330.736 168.992 329.764 171.245C327.832 175.719 325.401 181.238 321.813 184.665C318.814 187.53 314.802 187.754 310.884 187.094C301.97 185.592 296.113 178.74 292.372 170.958C289.968 165.958 288.131 160.622 286.991 155.192C285.67 148.908 286.019 142.582 285.901 136.209ZM297.478 93.8613C289.159 87.8424 301.247 81.0075 307.4 81.9381C308.843 82.1559 311.499 82.7525 311.364 84.6361C311.253 86.1756 308.685 87.8916 307.699 88.8418C304.888 91.5532 302.027 97.152 297.478 93.8613ZM357.992 227.598C357.707 227.342 355.379 227.97 356.301 226.593C357.067 225.448 359.192 226.883 359.964 227.177C359.328 227.617 358.774 228.297 357.992 227.598ZM323.354 300.393C322.639 300.482 321.892 298.553 324.469 299.994C324.098 300.127 323.726 300.261 323.354 300.393ZM323.281 331.821C323.37 332.685 323.634 333.254 323.02 333.883C322.501 333.243 322.434 332.341 323.281 331.821ZM324.327 344.806C324.251 345.276 324.175 345.746 324.1 346.216C323.505 345.915 322.91 345.614 322.315 345.312C322.985 345.144 323.657 344.975 324.327 344.806ZM325.055 333.856C325.942 334.188 325.53 333.127 326.174 332.978C326.404 334.082 326.12 335.028 325.486 335.939C325.426 335.723 325.101 333.872 325.055 333.856ZM347.725 255.499C346.481 255.341 346.293 256.656 345.365 257.166C344.766 257.495 342.943 257.248 342.603 257.878C343.052 258.008 343.501 258.138 343.95 258.268C342.922 258.822 341.894 259.377 340.865 259.931C343.339 259.931 345.916 258.749 348.373 259.096C349.411 259.243 350.173 259.594 350.824 260.438C351.219 260.951 351.567 261.776 351.63 262.404C351.699 263.083 351.17 263.553 351.264 263.877C352.371 263.907 352.24 265.723 351.991 266.463C351.452 268.068 349.311 270.581 347.392 269.563C348.195 270.702 347.991 271.352 346.804 272.013C346.911 271.637 346.991 270.978 346.384 271.043C346.228 271.674 346.288 272.676 345.773 273.151C345.195 273.684 344.68 273.061 344.129 273.408C343.474 273.819 343.671 274.464 343.157 274.91C342.476 275.499 342.379 275.08 341.566 275.195C340.334 275.369 341.12 274.604 340.134 275.601C339.792 275.946 339.85 276.841 339.297 277.345C338.234 278.312 335.399 279.319 334.382 278.079C331.934 281.958 324.6 282.888 321.185 279.827C315.74 274.944 325.893 265.014 329.245 261.867C332.61 258.708 336.347 255.98 340.128 253.347C342.276 251.851 344.481 250.493 346.732 249.16C348.121 248.338 349.865 246.836 351.571 246.98C353.102 247.109 354.41 248.297 356.021 248.532C357.186 248.702 359.45 248.982 357.98 250.563C357.292 251.301 354.592 252.496 353.673 252.676C353.133 252.781 352.563 252.579 352.028 252.688C351.122 252.874 350.5 253.639 349.514 253.542C349.826 255.005 349.256 255.694 347.725 255.499ZM363.84 201.187C363.841 202.332 361.752 202.046 361.315 201.658C360.597 201.018 360.572 199.105 360.305 198.236C361.52 198.541 363.839 199.659 363.84 201.187ZM347.011 163.427C351.399 159.821 356.013 156.514 360.891 153.601C362.638 152.558 365.104 150.455 367.273 150.717C368.183 150.828 370.065 151.873 369.379 153.025C369.251 153.241 368.239 153.327 367.926 153.484C367.571 153.661 367.293 154.149 366.964 154.39C364.685 156.062 361.947 157.09 359.66 158.802C357.781 160.208 356.029 161.781 354.006 162.987C352.066 164.144 350.038 164.876 348.196 166.158C348.232 166.132 345.799 167.007 346.276 167.166C344.141 166.452 346.396 163.933 347.011 163.427ZM376.269 162.084C378.876 161.045 381.426 159.784 384.156 159.086C385.518 158.737 386.916 158.475 388.326 158.632C388.565 158.213 388.884 158.12 389.283 158.354C389.594 158.832 390.004 159.199 390.514 159.456C391.291 160.054 394.154 160.835 393.582 162.155C393.204 163.028 390.333 163.101 389.546 163.297C387.171 163.888 384.957 165.219 382.511 165.546C382.281 165.576 381.531 165.298 381.523 165.3C380.568 165.508 379.774 166.499 378.954 166.973C377.189 167.995 374.653 168.167 373.385 169.93C377.49 172.712 381.051 169.953 384.66 167.852C386.821 166.594 389.142 165.686 391.504 164.88C392.739 164.459 393.984 164.021 395.235 163.651C395.753 163.462 396.286 163.326 396.832 163.243C397.34 163.142 397.704 163.327 397.923 163.798C399.436 163.748 399.566 162.799 400.476 164.569C401.76 167.065 399.796 166.938 397.95 167.245C395.391 167.669 392.788 168.626 390.266 169.26C389.684 169.406 384.584 170.589 384.577 170.63C384.346 172.24 398.985 170.749 400.242 170.508C402.459 170.081 404.838 168.87 407.133 169.162C408.896 169.386 412.912 171.972 410.1 173.69C409.547 171.04 407.646 173.229 406.654 174.123C405.333 175.314 403.439 175.199 401.626 175.666C399.147 176.302 392.801 178.692 391.04 175.646C391.597 178.316 381.481 176.959 380.09 176.871C378.735 176.784 376.984 177.072 375.674 176.686C374.819 176.434 374.344 175.878 373.54 175.753C373.342 175.965 373.106 176.11 372.831 176.186C372.424 175.98 372.055 175.718 371.727 175.4C369.018 174.155 364.826 173.466 366.332 169.5C367.752 165.759 372.825 163.457 376.269 162.084ZM401.662 164.396C401.73 164.163 401.797 163.93 401.864 163.697C401.873 164.411 403.576 164.716 403.38 165.642C402.943 167.691 400.977 164.612 400.809 164.276C401.093 164.316 401.377 164.356 401.662 164.396ZM412.064 167.801C412.261 168.641 414.527 170.428 413.966 170.841C413.072 169.626 410.603 170.177 412.064 167.801ZM373.847 244.407C374.676 242.762 377.184 245.563 376.919 242.754C378.283 242.878 377.431 243.915 379.065 243.459C379.677 243.288 380.091 242.61 380.838 242.453C381.037 242.411 381.896 242.48 382.193 242.471C383.175 242.44 387.026 242.331 384.376 241.042C385.859 240.061 386.042 240.559 387.381 241.458C387.038 239.6 389.008 240.655 389.925 240.886C389.271 239.827 390.894 238.7 391.421 237.983C391.232 239.087 391.331 240.322 392.928 239.616C393.326 239.441 393.236 238.661 393.552 238.534C394.129 238.301 394.452 238.725 394.66 238.701C394.863 238.678 395.293 238.792 395.721 238.631C396.278 238.421 396.01 237.674 396.716 237.563C397.175 237.491 397.511 238.167 398.073 238.172C398.361 238.175 398.842 237.882 399.061 237.898C399.099 237.901 399.374 237.239 399.71 237.223C400.203 237.199 400.404 238.519 400.583 238.776C401.446 239.999 402.593 240.797 403.915 241.449C401.522 243.643 396.695 243.411 393.686 244.15C392.056 244.551 390.666 245.13 389.174 245.875C388.814 246.109 388.504 246.396 388.245 246.736C388.034 246.596 387.822 246.456 387.611 246.315C386.794 246.366 386.021 245.961 385.101 246.117C382.259 246.596 380.034 248.725 377.147 249.199C375.849 249.412 374.783 249.71 373.937 248.585C373.196 247.599 373.318 245.456 373.847 244.407ZM369.951 231.295C370.595 231.84 369.82 233.612 371.067 233.42C371.952 233.283 371.775 231.91 372.47 231.619C373.383 231.238 373.933 232.143 374.791 232.06C376.391 231.902 376.299 230.506 374.948 229.892C376.353 229.521 376.803 231.183 378.047 231.168C379.681 231.148 379.291 229.22 380.681 228.901C381.283 228.762 381.082 229.646 381.473 229.757C382.255 229.976 382.799 229.599 383.491 229.267C384.11 228.971 384.551 228.397 385.227 228.203C385.535 228.114 386.317 228.277 386.543 228.112C386.998 227.78 387.406 226.488 387.854 226.317C387.762 226.351 389.231 227.088 389.442 227.157C389.313 227.703 389.014 227.767 388.545 227.352C388.545 228.583 391.968 228.967 391.266 227.445C393.117 228.211 391.738 228.606 391.553 229.676C391.479 230.106 391.229 230.094 391.303 230.549C391.338 230.758 392.308 230.578 392.296 230.863C392.214 232.701 386.355 233.267 385.245 233.429C382.947 233.764 380.772 234.329 378.557 235.025C376.907 235.542 374.064 237.025 372.309 236.933C369.785 236.801 369.456 233.507 369.951 231.295ZM364.311 212.536C363.695 210.491 365.67 206.267 368.241 206.795C368.874 206.925 369.03 207.449 369.52 207.681C370.205 208.006 371.319 207.835 371.912 208.171C373.244 208.924 372.573 210.844 373.907 211.538C371.801 212.049 365.289 215.787 364.311 212.536ZM366.748 220.482C367.655 219.994 369.126 219.931 369.744 218.994C370.052 219.207 370.635 220.502 371.187 220.304C371.445 220.212 371.712 219.51 371.694 219.51C372.186 219.496 372.283 218.83 373.036 218.905C373.726 218.974 374.499 219.804 375.114 220.114C375.009 218.056 375.536 217.859 377.205 216.757C377.57 216.516 377.876 215.61 378.213 215.244C377.891 217.403 378.704 217.415 380.429 217.739C382.591 218.146 383.937 219.307 384.804 221.395C382.961 221.036 380.585 221.469 379.859 223.449C378.389 220.763 373.045 224.469 371.316 225.229C370.033 225.792 368.541 226.55 367.465 225.236C366.707 224.311 367.142 223.199 367.158 222.377C367.162 222.119 367.429 222.104 367.404 221.719C367.373 221.229 366.734 221.033 366.748 220.482ZM386.416 262.723C385.929 262.907 383.425 263.011 383.409 262.181C383.396 261.448 387.828 262.187 386.416 262.723ZM382.348 260.04C380.453 261.208 378.334 257.092 377.637 255.907C379.624 256.161 380.595 254.498 381.766 253.235C382.879 255.675 384.571 254.385 386.35 253.57C388.448 252.609 390.747 252.602 392.897 251.83C393.567 251.59 394.186 251.232 394.841 250.956C395.368 250.759 395.893 250.557 396.417 250.35C396.788 250.014 396.921 249.602 396.812 249.112C396.636 248.701 396.756 248.441 397.173 248.334C397.668 248.482 398.173 248.568 398.689 248.591C399.517 248.426 400.707 247.645 399.708 246.803C400.779 245.829 401.852 246.797 402.884 247.223C402.638 246.524 402.394 245.826 402.149 245.127C402.661 245.344 404.18 247.467 404.335 247.455C405.317 247.381 405.215 246.064 405.779 245.532C406.105 245.933 406.198 248.928 407.478 247.919C408.026 247.488 406.847 246.019 406.556 245.684C408.021 246.015 409.3 247.763 409.696 249.121C409 249.221 408.357 249.082 407.767 248.701C407.389 250.591 410.888 249.825 411.455 250.813C412.564 252.746 405.348 254.089 404.408 254.268C402.527 254.627 400.306 254.76 398.582 255.594C396.93 256.393 396.539 256.621 394.608 256.771C392.404 256.942 390.254 257.668 388.123 258.233C386.272 258.724 383.989 259.028 382.348 260.04ZM422.623 190.835C424.363 190.209 430.224 186.959 431.716 188.404C431.558 188.251 432.791 190.8 432.779 190.639C432.885 191.965 432.852 192.498 431.221 193.133C430.052 193.588 429.034 192.622 427.983 193.006C426.828 193.427 427.636 194.174 427.042 194.695C426.39 195.266 425.135 195.513 424.324 195.763C422.34 196.376 420.34 196.888 418.366 197.549C414.348 198.892 410.093 200.142 405.964 201.092C402.878 201.802 397.641 203.567 394.798 201.483C394.52 202.668 393.842 202.506 392.9 202.678C392.161 202.813 390.825 203.179 390.168 203.198C389.075 203.23 386.035 202.943 386.454 201.41C386.339 201.832 388.818 200.387 388.389 200.297C389.442 200.519 389.1 199.988 389.963 199.694C391.09 199.309 392.267 199.329 393.417 198.922C396.317 197.894 398.749 196.56 401.81 195.916C408.8 194.445 415.878 193.262 422.623 190.835ZM142.378 349.248C141.812 349.263 141.371 347.653 143.094 348.802C142.856 348.951 142.617 349.099 142.378 349.248ZM128.765 347.165C127.995 347.362 127.688 346.932 127.844 345.876C128.919 345.451 129.225 345.881 128.765 347.165ZM118.256 345.009C118.058 344.068 118.757 343.855 119.39 343.433C119.326 344.68 119.326 344.68 118.256 345.009ZM91.8129 337.26C90.7477 337.025 89.3283 335.984 89.0842 337.733C88.906 337.328 87.9966 335.423 88.3871 334.982C88.591 334.751 89.3629 335.818 89.2808 335.713C90.2131 333.827 91.8202 336.103 92.7184 336.776C92.4168 336.937 92.1146 337.099 91.8129 337.26ZM368.773 128.85C369.14 128.073 369.574 127.826 370.072 128.11C369.289 129.929 366.637 130.915 368.773 128.85ZM387.201 111.778C387.858 113.009 386.869 113.53 386.164 114.554C386.577 113.449 386.863 112.684 387.201 111.778ZM467.291 232.012C469.661 232.011 474.708 230.76 476.137 233.469C477.083 231.628 478.158 235.08 478.978 235.633C479.07 235.696 479.661 235.244 479.936 235.411C480.351 235.661 480.708 236.345 480.945 236.751C481.661 237.975 481.969 239.431 482.365 240.778C478.227 240.778 473.983 239.815 469.848 239.464C467.134 239.234 464.473 239.227 461.754 239.374C461.214 239.403 460.142 239.225 459.68 239.326C459.211 239.43 458.36 240.385 457.843 240.232C458.646 241.741 468.941 245.393 469.726 243.722C468.796 243.159 466.729 242.727 466.73 241.366C466.732 239.842 468.669 239.845 469.696 239.889C471.942 239.988 475.702 240.735 476.623 243.07C477.017 244.071 477.138 246.591 476.705 247.558C476.425 248.182 475.951 248.932 475.2 249.059C474.893 249.111 474.449 248.701 474.402 248.711C472.862 249.038 470.01 250.275 468.33 248.531C467.118 250.099 461.282 248.386 459.495 247.795C456.37 246.76 452.067 245.34 450.169 242.424C447.855 238.87 452.559 235.866 455.26 234.422C458.952 232.448 463.17 232.013 467.291 232.012ZM483.061 240.228C483.788 240.433 484.514 240.639 485.24 240.844C485.046 242.118 482.18 241.11 483.061 240.228ZM505.019 286.523C505.242 281.42 503.767 276.926 502.915 271.991C502.704 270.768 502.919 268.629 501.99 267.623C501.102 266.661 499.121 267.443 499.042 265.743C498.168 266.767 498.256 266.981 497.179 265.803C497.375 266.308 497.404 266.821 497.264 267.344C496.596 266.961 494.172 265.689 494.376 267.429C492.384 266.988 492.961 265.742 491.824 264.79C491.663 264.655 491.014 265.135 490.761 264.931C490.304 264.56 490.078 264.224 489.693 263.747C489.203 264.339 488.536 264.767 487.937 265.235C487.589 264.477 486.911 263.921 486.097 263.736C486.858 265.329 488.741 267.393 486.159 268.299C484.618 268.84 482.093 268.177 480.461 268.303C474.412 268.773 467.786 267.454 461.937 266.013C455.928 264.532 449.851 262.443 444.448 259.388C443.296 258.737 442.57 257.966 441.578 257.158C440.614 256.373 439.913 256.249 438.754 255.747C436.667 254.843 434.759 253.393 433.172 251.778C429.76 248.304 426.589 243.761 427.539 238.675C428.487 233.606 431.971 229.644 435.7 226.306C440.103 222.364 445.075 219.072 450.352 216.418C452.711 215.232 458.746 210.775 461.077 213.383C462.567 215.049 461.729 217.174 459.694 217.545C459.192 217.636 458.667 217.299 458.159 217.53C457.428 217.863 457.685 218.256 457.383 218.534C456.858 219.016 456.301 219.768 455.517 220.186C452.782 221.644 450.137 222.8 447.523 224.576C446.317 225.394 445.157 225.746 444.095 226.461C443.038 227.171 442.797 228.346 441.376 227.621C441.882 229.688 438.844 231.901 437.653 233.167C435.808 235.128 433.596 237.63 434.457 240.531C436.142 246.21 443.756 250.523 448.629 253.019C454.709 256.134 461.415 258.613 468.186 259.64C471.552 260.15 475.031 260.465 478.422 260.788C481.063 261.04 485.115 260.118 487.015 262.496C487.073 259.723 495.734 259.967 497.577 259.613C493.881 246.98 486.625 235.749 478.867 225.255C475.06 220.103 471.32 214.806 466.981 210.083C462.229 204.914 456.801 200.293 451.643 195.536C441.527 186.206 430.086 177.879 418.444 170.544C406.828 163.226 394.799 156.023 382.074 150.805C367.54 144.846 352.238 140.927 336.92 137.589C338.998 134.941 342.378 133.649 345.039 131.712C345.97 131.034 347.229 129.406 348.439 129.184C349.75 128.943 350.781 130.353 351.714 131.06C354.392 133.091 356.243 132.229 359.31 132.107C361.145 132.033 365.49 133.055 366.264 130.573C367.293 131.943 365.801 133.041 365.037 134.045C365.593 134.821 366.041 134.016 366.59 133.895C366.759 133.755 366.928 133.614 367.097 133.474C367.37 133.08 367.616 133.077 367.834 133.466C368.162 133.959 368.491 133.85 368.823 133.139C368.914 133.082 369.004 133.024 369.095 132.967C369.492 132.756 369.875 132.422 370.243 132.159C373.03 130.168 375.514 128.471 378.59 127.004C381.173 125.773 379.784 123.418 381.487 121.754C381.873 121.378 382.521 121.566 382.934 121.247C383.337 120.934 383.398 120.579 383.692 120.243C384.4 119.436 383.557 118.499 385.363 119.487L384.712 115.822C388.251 119.257 388.237 109.374 388.721 107.912C388.657 108.105 389.039 106.608 389.038 106.621C389.142 103.656 389.547 101.506 386.074 101.334C387.389 100.507 387.791 102.122 388.398 100.45C388.702 99.612 387.753 98.1719 389.266 98.7121C389.585 96.9313 389.27 95.4901 388.873 93.7596C388.466 91.9883 388.705 90.8063 388.724 89.035C388.745 87.0258 387.804 85.0064 387.503 83.0279C387.267 81.4784 387.51 79.0345 385.507 79.6037C385.225 79.163 386.215 77.8073 386.174 77.137C386.112 76.0958 384.982 75.0378 384.662 74.0379C384.191 74.5239 383.527 74.6859 382.887 74.4663C383.488 73.1078 382.923 72.6515 382.348 71.4801C382.017 70.8092 382.217 70.0685 381.51 69.5876C381.105 69.3116 380.415 69.7764 380.098 69.453C379.417 68.7603 379.669 67.8414 379.2 66.9287C378.613 65.7841 377.272 64.9099 376.348 64.0508C371.153 59.2218 365.51 55.5311 358.599 53.6442C351.627 51.7405 343.499 51.0585 336.551 53.2543C333.773 54.1319 331.308 54.0419 328.808 55.6808C327.997 56.2126 327.91 56.0702 327.499 56.9567C327.404 57.1633 328.267 57.7136 327.738 58.0515C327.164 58.4185 326.53 57.6722 326.237 57.0527C322.621 59.6703 319.233 63.1598 317.173 67.1611C315.126 71.1371 314.939 75.8081 314.157 80.1288C310.553 76.0109 305.677 74.0368 300.377 76.0164C295.757 77.7414 292.177 81.5331 291.273 86.4454C290.721 89.44 291.324 92.4726 292.684 95.1745C293.272 96.342 293.984 97.6346 295.066 98.4205C295.921 99.0417 297.385 98.9545 297.788 100.075C298.405 101.792 294.841 105.499 293.915 107.002C292.241 109.721 290.685 112.529 289.501 115.499C285.255 109.501 281.191 102.951 276.363 97.4206C271.806 92.2011 266.375 87.5201 261.047 83.1083C249.99 73.9519 238.493 65.3495 226.125 58.0549C214.609 51.2624 200.697 47.4913 187.275 48.8247C174.161 50.1279 164.121 58.4219 155.672 67.9878C139.427 86.3806 129.478 112.596 128.506 137.08C128.214 144.435 128.774 151.694 130.591 158.827C131.456 162.224 131.33 165.565 131.833 169.006C132.4 172.887 133.382 176.754 134.331 180.556C137.946 195.038 142.552 209.51 147.721 223.513C150.408 230.794 153.66 237.913 158.059 244.334C160.09 247.3 162.722 249.621 164.909 252.437C167.03 255.169 167.59 258.521 168.057 261.873C169.175 269.909 169.917 277.98 170.589 286.063C170.875 289.489 171.208 292.885 171.662 296.287C172.057 299.253 171.062 299.107 168.567 300.114C169.073 297.449 157.152 299.262 156.026 299.444C154.801 299.642 153.504 299.645 152.539 299.802C151.461 299.978 150.405 300.232 149.163 300.196C147.337 300.144 143.917 299.677 143.22 302.008C142.74 299.306 139.571 302.261 141.916 301.759C139.509 302.028 137.053 301.58 134.617 301.807C131.825 302.066 129.009 302.313 126.237 302.733C124.307 303.026 122.465 303.769 120.532 303.985C118.058 304.261 115.476 304.235 112.978 304.456C103.764 305.268 94.2138 307.278 85.2573 309.58C83.2285 310.101 80.8975 310.471 78.9591 311.308C78.4402 311.531 77.9732 312.032 77.4761 312.224C76.6426 312.546 76.7566 312.323 76.0165 312.471C71.5818 313.357 67.0069 314.805 62.5728 315.941C60.1133 316.572 56.1127 317.141 54.1062 318.857C53.2068 319.626 52.4209 320.989 53.8621 321.863C55.0133 322.561 56.6567 321.447 57.5885 320.845C56.7584 323.008 55.1926 324.086 56.0384 326.547C56.7059 328.492 58.213 330.889 60.5317 329.635C60.8423 330.357 60.9679 331.794 61.8824 332.059C62.7041 332.298 63.299 331.256 64.1039 331.502C64.3921 331.589 64.2826 332.134 64.5407 332.276C64.9854 332.521 65.4361 332.625 65.9456 332.798C66.3835 332.946 67.0885 333.251 67.5454 333.283C67.8353 333.304 68.5185 332.808 68.5162 332.808C69.1821 332.909 69.5401 334.183 70.0194 334.552C70.6417 335.03 71.1556 335.139 71.9348 335.312C73.5547 335.671 75.6428 336.288 76.7119 334.63C76.4672 335.814 78.0777 335.698 78.7882 335.848C78.7094 335.224 78.3648 334.653 77.833 334.31C79.4216 334.415 78.7776 335.994 79.9518 336.412C80.7885 336.708 80.6936 335.954 81.3337 335.87C82.1772 335.76 82.8173 336.372 84.1345 335.808C84.4199 337.076 84.5244 338.356 86.0823 338.545C86.9967 338.656 89.1289 337.005 89.0082 338.379C91.051 337.78 91.8263 338.185 92.8938 339.985C93.0742 338.88 93.9473 339.201 94.7483 339.133C96.018 339.024 96.0504 339.126 97.0347 338.407C97.1246 338.342 97.8988 336.569 98.2429 337.671C98.3976 338.164 97.3749 339.326 96.9961 339.622C97.4665 339.86 99.0076 340.693 99.6003 340.54C100.113 340.407 100.115 339.531 100.731 339.486C100.58 339.989 100.43 340.494 100.278 340.998C101.477 341.172 102.479 340.37 103.426 339.782C104.328 342.065 106.908 340.779 108.312 342.496C109.054 343.405 109.089 344.096 110.503 344.333C111.95 344.576 113.214 343.941 114.444 345.135C114.054 344.394 113.083 343.779 114.048 342.983C114.705 343.916 115.044 345.039 115.802 345.905C115.906 345.465 116.011 345.024 116.115 344.583C118.09 346.695 120.575 346.713 123.105 347.884V346.338C124.916 349.102 125.012 347.353 127.176 346.224C127.029 347.037 126.881 347.85 126.735 348.662C128.291 348.545 129.746 350.389 131.024 348.822C131.796 350.117 132.732 349.48 133.997 349.891C134.716 350.125 135.252 350.833 135.952 351.09C137.001 351.474 137.315 351.456 138.303 351.791C139.182 352.088 139.681 352.667 140.781 352.852C141.495 352.973 142.143 352.964 142.827 352.931C143.091 352.918 143.004 352.324 143.591 352.462C144.499 352.677 145.175 353.816 145.828 354.399C146.812 351.928 149.564 355.238 150.895 355.679C151.022 355.046 150.999 354.282 151.458 353.762C151.996 354.941 152.202 355.933 153.32 356.692C153.965 357.131 154.912 357.445 155.657 357.605C156.128 357.706 156.984 357.585 157.28 357.73C157.785 357.978 157.971 358.639 158.481 358.701C158.781 358.737 159.226 357.948 159.45 358.009C160.478 358.289 161.049 359.538 162.087 360.213C165.175 362.223 169.062 362.418 172.503 362.858C173.366 362.968 173.492 362.733 174.193 363.239C174.567 363.51 174.398 364.333 174.858 364.564C176.592 365.433 176.593 363.579 176.957 362.426C177.531 363.183 177.63 364.183 178.415 364.785C178.843 364.773 179.272 364.782 179.7 364.814C179.941 365.089 180.1 365.407 180.174 365.767C181.212 366.469 182.389 366.225 183.463 366.752C183.814 366.924 184.438 367.968 184.871 368.268C185.647 368.806 186.847 369.093 187.734 369.326C189.593 369.816 192.258 369.165 193.364 371.106C194.833 369.532 194.265 371.412 195.262 371.807C195.85 372.04 196.736 371.113 197.389 371.205C198.565 371.371 198.988 372.644 199.365 373.569C200.081 373.41 199.589 371.383 199.569 370.939C200.459 370.834 200.657 373.178 200.81 373.693C202.215 373.016 199.909 370.911 201.42 370.236C201.281 372.029 202.711 373.506 200.158 373.763C200.51 374.843 208.744 376.043 209.316 375.09C209.443 376.853 210.627 375.206 211.064 374.603C211.113 375.631 210.763 377.091 211.917 377.569C212.701 377.893 214.469 377.054 214.777 376.285C215.129 377.459 215.717 377.421 216.449 378.167C216.952 378.679 217.283 379.567 217.81 379.996C218.781 380.786 220.586 380.665 221.716 380.489C223.928 380.143 223.667 379.719 224.455 382.019C224.633 381.146 225.192 379.321 226.166 380.678C226.786 381.54 225.466 383.44 225.084 384.197C225.937 383.728 226.783 383.173 227.753 382.972C227.807 383.27 227.857 383.904 227.714 384.181C227.743 384.125 228.777 384.819 229.161 385.011C229.069 384.965 229.464 383.237 229.453 383.294C230.818 384.136 229.871 385.747 231.08 386.577C231.392 386.792 232.125 386.542 232.503 386.672C233.16 386.9 233.729 387.516 234.313 387.877C233.847 387.251 233.914 386.201 233.945 385.478C234.243 385.643 234.455 386.257 234.755 386.306C234.868 386.324 236.044 386.48 236.036 386.474C237.26 387.331 237.008 387.439 235.957 388.47C236.333 389.06 237.902 388.035 238.326 387.864C238.415 388.095 238.438 388.933 238.605 389.083C238.706 389.331 238.808 389.579 238.91 389.827C239.223 389.593 239.559 389.515 239.918 389.593C240.145 389.671 241.915 390.391 242.035 390.145C241.648 390.02 241.297 389.828 240.983 389.569C242.004 388.651 242.676 388.163 243.617 389.489C243.736 389.656 243.329 390.256 243.449 390.473C243.899 391.285 244.823 391.93 245.45 392.59C245.71 391.678 245.106 389.394 246.548 389.477C247.7 389.543 248.577 392.335 248.178 393.203C248.636 392.702 251.371 392.204 251.887 392.361C253.346 392.803 252.937 394.153 254.733 392.175C255.957 393.021 254.878 393.341 255.099 394.371C255.422 394.438 255.728 394.358 256.018 394.131C255.802 398.509 259.032 395.164 261.129 395.833C261.953 396.095 262.163 397.03 263.047 397.303C263.515 397.447 264.035 397.106 264.489 397.189C264.854 397.137 265.215 397.073 265.575 396.996C266.031 396.768 266.245 397.023 266.217 397.763C266.95 398.142 266.673 398.291 267.53 398.365C268.082 398.413 268.589 397.839 269.217 397.936C270.299 398.106 270.156 398.937 270.847 399.371C271.47 399.762 272.171 399.749 272.938 399.673C273.328 399.635 274.424 399.132 274.556 399.13C275.375 399.119 274.931 398.945 275.914 399.648C276.68 400.196 277.001 400.552 277.94 400.804C279.018 401.093 280.929 401.725 281.654 400.946C282.634 402.414 283.401 401.336 284.693 401.434C285.354 401.484 285.459 401.741 286.048 401.844C287.002 402.011 288.193 401.867 289.208 402.192C290.807 402.706 290.987 402.964 292.622 403.033C292.917 402.918 293.212 402.803 293.506 402.688C293.594 403.18 293.826 403.581 294.202 403.893C295.116 404.084 295.717 403.623 296.471 403.117C297.033 404.867 298.856 405.02 300.416 405.25C302.932 405.622 305.339 405.825 307.765 406.652C309.815 407.35 311.868 408.134 313.839 409.029C315.574 409.816 317.212 410.993 319.175 410.44C323.622 409.188 327.932 404.623 331.653 402.001C336.06 398.896 340.813 396.338 345.418 393.547C363.751 382.434 383.12 373.034 401.196 361.508C411.064 355.215 420.221 347.738 430.82 342.647C429.311 348.882 426.742 355.211 427.207 361.738C427.393 364.368 428.168 367.476 430.208 369.312C432.73 371.582 435.539 370.137 437.951 368.515C443.12 365.04 446.566 359.969 450.435 355.207C455.01 349.574 458.559 343.522 461.919 337.103C462.724 338.233 462.111 340.126 462.123 341.379C462.139 342.977 462.57 344.518 463.311 345.945C465.225 349.628 468.867 350.522 472.158 347.998C478.491 343.141 482.167 334.491 485.56 327.526C487.496 331.126 490.243 335.659 494.891 333.087C498.726 330.965 500.979 326.223 502.153 322.207C505.578 310.483 504.492 298.541 505.019 286.523Z" fill="black"/>
<path fill-rule="evenodd" clip-rule="evenodd" d="M499.202 216.102C498.765 215.04 498.573 215.214 499.377 214.184C500.004 214.801 499.502 215.311 499.202 216.102ZM518.586 280.404C517.356 276.907 518.115 273.11 517.368 269.523C517.025 267.877 516.484 266.281 516.289 264.606C516.203 263.862 515.541 260.516 515.991 259.989C514.604 259.149 514.599 258.527 514.279 256.88C514.773 256.355 514.711 255.908 514.092 255.536C513.688 255.047 513.283 254.557 512.878 254.068C514.648 254.933 513.601 252.718 513.42 251.442C513.277 250.433 513.181 249.381 512.845 248.414C512.431 247.225 511.51 246.624 513.425 246.624C512.795 245.907 511.853 245.168 511.539 244.29C511.088 243.027 511.832 241.358 510.912 240.243C510.398 239.62 507.752 239.377 508.216 238.033C508.453 237.348 509.525 237.859 509.857 237.379C511.161 235.493 507.31 234.712 507.122 233.91C506.877 232.87 508.268 232.637 508.353 231.665C508.436 230.713 506.957 229.149 506.566 228.298C506.033 228.427 505.449 229.27 504.839 228.867C504.723 228.791 504.897 225.496 504.758 225.059C504.622 224.629 504.343 223.488 504.244 223.277C503.849 222.438 502.719 222.03 502.539 221.04C502.432 220.449 504.748 219.554 502.092 219.526C503.046 217.845 501.298 216.823 500.662 215.386C499.844 213.539 499.362 211.544 498.522 209.687C497.705 207.882 496.792 206.169 495.615 204.574C494.549 203.128 494.088 201.739 493.236 200.213C493.066 200.079 492.895 199.944 492.725 199.81C492.014 199.913 491.786 199.59 492.041 198.84C491.498 198.035 491.094 197.176 490.615 196.335C490.058 195.358 489.306 194.561 488.731 193.611C487.967 192.352 487.742 190.931 486.879 189.667C485.818 188.113 484.625 186.742 483.641 185.129C482.409 183.109 481.044 181.853 479.493 180.289C478.756 179.544 478.667 177.682 477.762 176.624C476.778 175.472 475.805 175.16 475.122 173.647C474.234 171.679 472.931 170.74 471.663 169.039C470.616 167.635 470.105 166.023 468.952 164.665C467.96 163.5 466.835 162.434 465.776 161.329C464.44 159.933 463.453 158.237 462.063 156.909C462.263 157.101 460.852 155.983 460.923 156.018C460.611 155.859 459.603 155.731 459.75 155.818C457.651 154.584 455.02 150.068 451.862 152.461C450.2 153.719 450.997 156.027 452.157 157.281C452.655 157.819 455.244 160.474 455.804 159.354C456.407 160.21 458.267 164.347 459.814 163.162C459.656 164.575 460.475 164.106 461.016 165.062C461.372 165.693 461.198 166.002 461.458 166.986C462.171 169.692 464.892 172.335 466.342 174.694C469.95 180.567 473.93 186.137 477.541 192.016C480.983 197.619 484.837 202.936 488.139 208.614C491.894 215.072 496.573 221.167 499.402 228.128C499.498 228.362 500.284 228.733 500.479 229.084C500.819 229.695 500.746 230.75 500.965 231.442C501.724 233.839 502.954 236.199 504.357 238.185C505.587 239.928 505.676 242.295 506.522 244.339C507.716 247.22 508.977 250.07 510.136 252.966C511.941 257.472 513.164 261.791 514.411 266.495C515.219 269.544 515.862 272.591 516.12 275.74C516.357 278.635 516.415 281.651 517.486 284.392C518.217 283.263 519.078 281.801 518.586 280.404Z" fill="black"/>
<path fill-rule="evenodd" clip-rule="evenodd" d="M105.708 342.442C104.411 342.18 103.19 341.83 102.915 340.341C102.727 341.043 102.54 341.745 102.351 342.448C103.93 342.805 105.51 343.163 107.089 343.521C106.721 342.871 106.451 342.592 105.708 342.442Z" fill="black"/>
<path fill-rule="evenodd" clip-rule="evenodd" d="M109.188 98.0342C109.287 97.6142 109.414 97.2025 109.571 96.8008C109.678 97.1924 110.201 98.0392 109.896 98.4085C109.508 98.8771 109.116 98.6118 109.188 98.0342ZM115.547 85.9362C115.972 86.1239 116.894 86.1602 117.422 86.3188C116.051 87.498 115.81 87.1511 114.038 87.0143C113.959 85.8211 114.444 85.4508 115.547 85.9362ZM103.665 115.474C103.849 115.479 104.033 115.483 104.218 115.487C104.229 114.968 104.216 114.449 104.177 113.931C106.046 114.339 104.988 111.073 104.401 110.396C106.224 110.457 107.112 104.684 107.69 103.572C108.202 102.585 108.783 102.202 109.158 100.998C109.486 99.9441 109.841 98.9956 110.314 97.9985C111.401 95.706 112.827 93.6241 112.564 90.9524C113.485 92.9572 114.295 90.9557 114.879 89.9972C115.821 88.4527 118.117 86.4819 118.361 84.6475C118.577 83.0326 117.377 82.9472 118.085 81.4496C118.801 79.9335 119.39 80.0855 120.645 79.6006C121.479 79.2778 121.645 79.6699 122.234 78.6164C122.615 77.9343 122.481 77.426 122.969 76.8669C123.171 77.0423 123.401 77.1149 123.658 77.0847C124.054 76.5613 124.315 75.9781 124.438 75.3352C124.761 74.4671 124.918 73.67 125.405 72.8433C125.867 72.0602 126.687 69.9649 127.121 69.5873C127.583 69.1862 130.2 69.3901 130.189 69.4046C131.27 68.045 129.286 66.6904 132.033 66.977C131.49 65.967 133.396 64.7135 133.949 64.1516C135.33 62.749 135.44 62.0999 135.732 60.3358C135.88 59.4365 134.913 59.5404 136.209 59.3354C136.744 59.2511 137.258 59.9359 137.645 59.8353C139.351 59.3929 137.566 59.4773 138.037 58.7818C138.186 58.5612 138.945 57.6708 138.937 57.6803C138.901 57.725 139.108 56.9055 139.28 56.6949C139.607 56.667 139.928 56.61 140.243 56.524C140.404 56.2 140.546 55.8682 140.668 55.5286C141.904 54.4985 143.751 54.0377 144.605 52.906C145.158 52.1742 144.993 51.4576 145.706 50.728C146.386 50.0331 147.286 50.5364 147.42 48.9668C147.592 46.9698 145.447 46.0811 144.569 48.0965C142.19 45.1656 132.243 55.919 131.094 57.3239C126.103 63.4226 121.198 69.6722 117.104 76.4161C113.115 82.9874 109.841 89.9017 107.282 97.1494C106.048 100.644 105.297 104.123 104.543 107.738C104.29 108.948 102.399 114.342 103.186 115.549C103.345 115.524 103.505 115.499 103.665 115.474Z" fill="black"/>
<path fill-rule="evenodd" clip-rule="evenodd" d="M496.527 265.031C497.367 264.47 497.367 264.47 497.515 263.411C496.387 263.616 496.387 263.616 496.527 265.031Z" fill="black"/>
<path fill-rule="evenodd" clip-rule="evenodd" d="M82.141 336.322C82.1516 336.321 82.1594 336.323 82.1655 336.33C82.1477 336.307 82.0831 336.239 82.141 336.322Z" fill="black"/>
<path fill-rule="evenodd" clip-rule="evenodd" d="M81.577 336.89C81.8367 337.452 82.254 337.591 82.8293 337.308C83.0561 337.632 80.862 335.287 81.577 336.89Z" fill="black"/>
<path fill-rule="evenodd" clip-rule="evenodd" d="M119.52 80.6661C118.203 83.2474 119.852 81.3699 119.768 82.2084C119.823 81.6576 120.052 80.8728 119.52 80.6661Z" fill="black"/>
<path fill-rule="evenodd" clip-rule="evenodd" d="M333.568 120.617C334.139 125.246 340.471 123.057 341.895 120.257C342.933 118.219 345.552 110.164 342.734 108.463C340.645 107.202 340.198 112.638 339.683 113.852C338.82 115.886 338.146 114.445 336.227 114.967C334.11 115.543 333.333 118.698 333.568 120.617Z" fill="black"/>
<path fill-rule="evenodd" clip-rule="evenodd" d="M326.65 112.146C328.913 112.648 331.132 112.389 332.74 110.602C333.63 109.612 334.815 107.648 333.212 106.69C331.759 105.823 330.111 107.855 328.581 107.434C326.501 106.863 327.572 104.632 326.858 103.158C324.235 104.669 322.771 111.284 326.65 112.146Z" fill="black"/>
<path fill-rule="evenodd" clip-rule="evenodd" d="M328.996 123.833C326.815 123.828 326.797 126.512 327.936 127.662C329.025 128.762 331.782 129.876 333.259 129.02C336.174 127.331 330.762 124.007 328.996 123.833Z" fill="black"/>
<path fill-rule="evenodd" clip-rule="evenodd" d="M202.046 230.545C202.512 230.771 203.885 231.935 204.463 231.41C203.647 230.587 202.829 229.764 202.013 228.941C201.561 229.436 201.252 230.159 202.046 230.545Z" fill="black"/>
<path fill-rule="evenodd" clip-rule="evenodd" d="M191.735 112.815C191.503 112.988 191.27 113.161 191.039 113.333C191.821 113.985 191.802 114.179 192.59 113.562C192.356 113.254 192.071 113.005 191.735 112.815Z" fill="black"/>
<path fill-rule="evenodd" clip-rule="evenodd" d="M339.611 266.381C339.173 265.593 338.344 267.046 337.784 267.282C336.872 267.666 336.124 265.632 336.386 268.07C334.325 267.126 333.074 269.291 331.746 270.418C329.868 272.011 327.572 272.875 326.319 275.137C332.214 276.517 338.691 271.435 343.087 268.096C343.804 267.551 347.389 264.801 344.959 264.535C343.965 264.427 340.348 267.705 339.611 266.381Z" fill="black"/>
<path fill-rule="evenodd" clip-rule="evenodd" d="M337.862 261.609C339.018 260.7 336.527 260.617 336.133 260.521C336.167 261.245 336.2 261.967 336.234 262.691C336.792 262.353 337.335 261.992 337.862 261.609Z" fill="black"/>
<path fill-rule="evenodd" clip-rule="evenodd" d="M333.525 264.643C333.87 264.427 334.832 263.754 334.178 263.252C333.586 263.629 333.163 264.243 333.071 264.944C333.222 264.844 333.373 264.743 333.525 264.643Z" fill="black"/>
<path fill-rule="evenodd" clip-rule="evenodd" d="M238.054 205.986C237.316 206.275 236.986 206.733 237.063 207.359C238.197 207.128 237.981 206.057 238.054 205.986Z" fill="black"/>
</svg>
