<svg width="627" height="471" viewBox="0 0 627 471" fill="none" xmlns="http://www.w3.org/2000/svg">
<circle cx="331.5" cy="224.5" r="189.5" fill="#EAF5EB"/>
<path fill-rule="evenodd" clip-rule="evenodd" d="M214.307 216.826C216.229 236.237 218.152 255.649 220.074 275.06C230.541 269.088 241.009 263.115 251.476 257.142V301.364V312.988C251.476 314.016 250.865 317.549 251.476 318.44C251.993 319.195 255.829 319.217 256.736 319.344C262.654 320.173 268.586 320.91 274.527 321.566C290.184 323.295 306.942 325.772 322.659 323.785C336.321 322.058 349.565 317.199 362.047 311.545C366.43 309.56 370.751 307.435 374.991 305.165C375.89 304.683 379.154 303.547 379.643 302.567C380.042 301.767 379.105 298.954 378.98 298.112C378.453 294.566 377.926 291.019 377.398 287.472L370.032 237.944L383.948 251.84C385.038 252.929 387.108 256.02 388.616 256.502C389.722 256.856 392.461 255.761 393.555 255.551C401.434 254.032 409.314 252.514 417.193 250.996C419.029 250.642 423.166 250.655 424.714 249.546C425.547 248.948 425.586 247.733 425.88 246.581C427.802 239.052 429.724 231.523 431.646 223.994C431.992 222.638 433.923 218.362 433.432 216.997C433.256 216.507 432.404 216.172 431.882 215.853C419.99 208.59 408.097 201.326 396.204 194.062C389.69 190.083 383.175 186.104 376.66 182.125C373.931 180.458 370.579 177.455 367.487 176.522C365.568 175.943 362.775 176.377 360.788 176.32C356.751 176.205 352.715 176.09 348.679 175.974C348.047 175.957 345.833 175.506 345.302 175.878C344.859 176.188 345.042 176.62 344.897 177.359C344.542 179.162 344.54 181.107 344.365 182.938C344.224 184.407 344.503 187.101 343.841 188.431C343.418 189.281 343.954 188.942 343.382 189.353C342.701 189.842 340.526 189.684 339.715 189.778C335.76 190.238 331.804 190.697 327.849 191.157C323.146 191.703 318.391 192.728 313.666 192.256C306.504 191.541 298.781 191.576 291.747 190.067C289.92 189.675 289.261 188.645 287.851 187.237C285.099 184.489 282.375 181.71 279.593 178.99C278.23 177.658 278.813 177.884 277.408 178.39C275.646 179.022 273.86 180.551 272.265 181.522C266.156 185.243 260.047 188.964 253.938 192.686L216.641 215.404C215.863 215.879 215.085 216.352 214.307 216.826Z" fill="#079911"/>
<path fill-rule="evenodd" clip-rule="evenodd" d="M571.045 219.239C563.356 248.428 547.893 280.256 516.74 289.559C509.166 291.821 501.797 293.529 493.931 292.668C493.182 292.585 492.556 292.691 491.843 292.704C490.567 292.729 491.67 293.187 490.238 292.745C489.122 292.401 488.078 291.539 486.916 291.158C483.824 290.147 480.529 289.951 477.387 289.134C469.668 287.126 461.712 284.646 454.232 281.877C450.71 280.573 447.473 278.757 444.16 277.01C440.792 275.235 437.223 274.133 433.818 272.505C431.126 271.217 426.515 269.54 424.623 267.126C422.606 264.551 425.397 259.07 426.195 256.333C428.908 247.02 432.14 237.843 434.179 228.345C441.221 236.506 450.994 241.56 461.112 244.819C466.602 246.588 472.249 247.867 477.959 248.667C483.143 249.393 488.736 250.272 493.933 249.241C497.856 248.462 502.78 246.659 505.582 243.665C506.581 242.596 507.781 240.636 507.221 239.084C506.51 237.112 504.438 238.04 503.316 236.569C502.339 235.288 502.492 232.291 502.181 230.731C501.63 227.97 500.874 225.284 499.95 222.626C498.158 217.465 495.925 212.292 495.389 206.8C494.924 202.036 496.009 197.53 498.386 193.396C499.509 191.441 502.33 186.124 505.083 186.345C508.106 186.587 504.029 199.328 503.896 201.927C503.367 212.23 504.75 223.208 510.036 232.239C512.06 235.696 514.988 239.722 519.31 240.151C523.888 240.604 527.58 237.002 529.759 233.358C535.076 224.466 532.396 212.266 529.703 202.947C526.4 191.514 517.779 183.633 512.327 173.365C520.466 174.183 524.824 179.353 529.001 185.913C533.6 193.134 537.18 201.805 538.945 210.208C539.837 214.453 539.221 218.716 539.227 223.003C539.229 224.427 539.228 229.682 541.551 229.475C544.032 229.254 544.883 223.327 545.248 221.52C546.085 217.373 546.99 213.226 547.716 209.059C549.002 201.686 549.574 194.135 551.113 186.814C551.373 185.576 551.892 182.142 553.745 183.069C555.173 183.783 554.944 189.094 554.996 190.329C555.124 193.371 555.305 196.412 555.329 199.458C555.366 203.971 554.466 208.643 554.907 213.129C555.195 216.06 556.768 219.298 558.719 215.345C560.652 211.425 561.047 206.536 562.125 202.32C563.258 197.894 564.428 193.403 566.831 189.472C567.498 188.381 568.215 186.65 569.697 187.163C570.774 187.536 571.569 190.088 571.902 190.989C573.404 195.06 573.149 199.586 573.054 203.848C572.938 209.07 572.378 214.176 571.045 219.239ZM421.122 226.814C420.711 226.681 418.966 226.516 418.533 226.478C418.025 226.434 418.601 225.499 417.373 225.765C417.61 226.352 418.031 226.744 418.637 226.941C416.791 227.566 415.429 226.023 414.166 225.825C412.959 225.635 412.908 225.825 411.715 227.1C410.424 225.525 410.666 226.508 409.604 226.508C409.218 226.509 409.201 227.092 408.572 227.023C408.023 226.961 407.966 226.129 407.641 226.03C405.879 225.497 404.066 228.18 402.068 225.853C401.584 228.274 396.036 225.241 393.901 225.667C391.664 226.112 392.629 226.914 390.821 225.543C389.098 224.237 389.579 225.104 387.574 226.173C387.621 226.148 386.443 226.944 386.553 226.957C385.165 226.795 385.244 225.36 383.487 225.437C381.628 225.517 380.834 226.975 379.132 225.181C378.762 226.525 378.685 225.946 377.813 226.284C377.333 226.399 376.914 226.272 376.554 225.907C376.445 226.276 376.205 226.502 375.835 226.586C374.885 226.671 373.102 226.803 372.239 226.346C370.944 225.659 371.985 225.396 371.087 224.623C370.685 226.753 369.803 226.3 367.943 226.499C366.524 226.651 366.212 226.215 364.856 226.004C363.521 225.795 361.797 226.313 360.494 226.534C359.957 226.626 359.237 227 358.69 226.869C358.197 226.75 357.986 226.367 357.691 226.267C357.333 226.147 357.41 225.834 356.792 225.682C356.366 225.578 355.603 225.978 355.177 226.047C352.142 226.54 349.226 226.545 346.33 225.351C347.757 227.857 342.997 226.504 342.148 225.466C341.088 227.128 339.805 225.955 337.667 226.084C335.608 226.209 332.512 226.84 331.677 224.276C331.514 224.797 330.346 226.309 329.881 226.54C328.531 227.209 328.37 226.22 327.116 225.817C325.408 225.268 325.764 226.309 324.705 226.521C322.918 226.879 321.952 225.62 320.372 224.951C320.305 225.991 320.27 226.631 319.371 227.279C318.574 224.379 315.732 227.516 316.22 223.64C315.138 224.344 313.616 224.885 313.308 226.309C315.117 225.812 313.501 226.994 313.425 227.033C313.186 227.158 312.379 226.025 312.191 225.865C312.14 226.4 312.089 226.935 312.038 227.469C311.317 227.109 310.641 226.464 310.056 226.141C309.529 225.85 310.284 225.244 309.394 225.202C308.925 225.179 308.435 226.196 307.943 226.282C307.189 226.415 307.551 225.334 307.236 225.371C306.756 225.426 305.974 226.128 305.611 226.114C304.42 226.07 305.226 225.516 304.317 225.262C302.694 224.808 302.798 225.869 301.631 226.252C298.961 227.129 299.229 223.095 296.513 225.785C295.863 226.429 295.444 227.423 294.554 227.368C292.71 227.252 293.358 225.067 293.732 223.996C294.12 224.187 286.996 227.847 287.052 227.704C287.097 226.826 288.218 226.149 287.216 225.37C286.398 227.126 285.536 227.157 283.648 227.484C282.73 227.643 282.55 227.856 281.568 227.474C280.942 227.232 280.522 226.234 279.9 226.179C279.984 226.186 278.842 227.055 278.668 227.133C277.637 227.598 276.985 227.071 275.984 227.262C275.13 227.425 274.794 228.151 273.944 227.952C272.811 227.688 273.477 226.334 271.917 226.711C271.384 226.84 271.063 227.868 270.223 228.08C268.914 228.412 267.309 227.793 265.925 228.116C264.827 228.372 264.011 228.481 263.051 228.534C262.275 228.578 262.594 227.974 261.166 228.687L260.56 227.16C259.845 227.803 259.13 228.446 258.415 229.089C258.279 228.512 258.193 227.929 258.157 227.337C257.09 228.406 255.747 228.588 254.314 228.684C252.761 228.788 251.604 229.127 250.094 229.411C249.616 229.5 248.386 229.643 247.994 229.476C248.051 229.5 247.259 229.171 247.498 229.234C247.395 229.024 247.299 228.811 247.211 228.594C247.078 227.992 246.644 227.965 245.912 228.515C245.533 228.456 244.798 227.959 244.42 228.082C243.446 228.397 243.579 229.153 242.608 229.043C241.978 228.97 241.656 228.04 241.001 227.976C239.997 227.88 239.127 229.003 238.223 229.248C240.972 228.502 234.656 229.081 236.62 229.132C235.333 229.099 233.996 229.035 232.806 229.612C232.149 229.162 232.947 228.259 232.283 227.887C231.68 227.55 231.634 228.44 231.563 228.46C231.943 228.353 231.754 229.111 231.373 229.245C230.188 229.665 229.24 228.598 229.179 227.538C228.172 229.053 227.889 228.444 226.409 228.538C224.948 228.63 223.689 229.396 222.228 229.382C219.339 229.354 217.378 228.35 216.413 225.77C219.492 226.145 222.591 224.166 225.602 224.632C226.591 224.785 227.209 225.528 228.076 225.396C229.144 225.234 229.89 224.069 231.259 223.943C234.28 223.667 237.257 223.936 240.299 223.473C243.932 222.92 247.723 222.592 251.39 222.861C254.225 223.07 256.519 221.986 259.393 221.777C263.11 221.507 266.857 221.459 270.579 221.264C274.404 221.063 278.52 220.453 282.334 220.648C283.525 220.709 284.549 220.826 285.731 220.755C286.231 220.725 286.704 220.385 287.229 220.436C287.911 220.502 288.205 221.201 288.913 221.177C290.117 221.136 291.404 220.144 292.835 220.117C295.188 220.072 297.531 220.077 299.89 219.943C301.967 219.825 304.192 219.341 306.26 219.367C307.718 219.385 308.078 220.628 308.928 220.756C310.457 220.986 318.188 216.587 318.856 220.535C322.881 217.781 328.278 220.113 332.758 219.596C338.513 218.931 344.374 219.523 350.168 219.287C356.064 219.046 362.13 219.269 368.002 219.825C370.435 220.055 372.785 220.271 375.225 220.131C376.312 220.069 377.569 219.791 378.657 220.042C378.92 220.103 380.937 221.511 380.686 221.551C381.788 220.562 381.043 220.417 382.981 220.367C384.474 220.328 385.887 220.65 387.373 220.738C390.039 220.896 392.725 220.526 395.386 220.608C397.607 220.676 399.779 221.003 402.012 221.02C404.419 221.037 407.262 221.105 409.003 223.045C408.819 222.436 408.636 221.827 408.452 221.218C411.139 221.428 413.794 222.387 416.51 221.938C415.823 222.596 415.125 223.134 414.863 224.1C416.327 223.914 417.319 222.891 418.861 222.883C420.156 222.875 420.426 223.525 421.794 222.686C421.962 223.714 422.13 224.743 422.298 225.771C424.192 225.325 422.95 223.913 423.088 222.64C424.627 223.102 425.931 222.571 425.324 224.786C424.856 226.493 422.725 227.334 421.122 226.814ZM418.46 245.83C417.8 247.685 412.088 246.625 410.737 246.429C408.992 246.176 406.995 245.775 405.388 245.577C405.195 245.319 404.964 245.101 404.695 244.922C404.493 245.203 404.237 245.403 403.928 245.521C403.19 245.682 403.187 246.444 402.218 246.276C402.173 247.403 402.956 246.762 403.556 247.171C402.044 248.185 402.735 247.018 401.887 247.037C401.677 246.739 401.384 246.622 401.009 246.686C400.531 246.81 400.091 247.014 399.688 247.3C399.31 247.699 398.986 247.719 398.717 247.362C398.459 247.102 398.143 246.942 397.771 246.881C396.282 247.123 395.866 247.784 394.189 247.676C391.793 247.522 389.201 248.153 386.842 247.82C385.381 247.615 382.938 245.318 382.275 247.557C381.264 245.897 379.655 244.768 378.687 243.072C383.194 242.812 387.699 242.502 392.21 242.339C396.16 242.196 400.48 242.641 404.171 242.455C407.628 242.28 411.289 241.898 414.819 241.583C418.561 241.249 419.799 242.069 418.46 245.83ZM300.882 246.104C302.519 246.556 304.077 245.53 305.664 245.854C306.189 245.961 307.275 246.917 307.514 246.935C307.951 246.971 309.236 246.033 309.787 245.907C313.273 245.114 317.496 245.198 320.981 245.686C322.828 245.943 323.111 245.098 324.723 244.688C326.399 244.261 328.78 244.59 330.545 244.472C334.695 244.194 338.845 244.392 342.967 244.088C347.199 243.777 351.411 243.608 355.645 243.39C358.529 243.242 365.461 241.596 367.851 243.737C369.823 245.503 367.283 248.568 365.311 249.268C363.837 249.79 363.13 248.689 362.035 248.795C360.789 248.914 361.223 250.387 360.111 249.021C359.422 250.379 355.088 249.8 353.846 249.89C351.14 250.085 348.85 250.629 347.008 248.104C347.133 248.832 347.258 249.56 347.383 250.288C344.94 248.982 342.318 249.401 340.197 249.856C339.148 250.081 335.924 251.638 334.787 250.967C334.004 250.505 335.384 249.715 334.063 249.32C333.371 249.114 332.176 250.263 331.331 250.205C328.99 250.044 329.655 248.471 327.356 250.473C326.577 249.8 326.318 248.655 326.421 247.674C324.751 249.098 324.89 251.472 321.905 251.037C320.793 250.875 320.588 249.74 320.008 249.531C318.772 249.085 318.632 249.887 317.562 250.522C317.158 250.761 316.665 251.147 316.189 251.195C315.212 251.292 315.057 250.843 314.923 250.858C314.273 250.93 313.454 251.26 312.682 251.024C311.989 250.812 311.787 249.59 310.567 249.876C309.399 250.15 309.39 250.943 309.602 252.13C308.45 252.011 307.754 251.369 306.892 250.675C306.022 252.703 304.192 251.023 303.179 252.735C301.86 251.16 301.014 251.593 299.377 250.055C299.458 250.697 299.538 251.339 299.618 251.98C298.341 251.734 297.773 250.834 296.683 252.025C295.626 250.055 292.419 252.862 290.773 250.96C290.039 253.369 285.182 252.793 283.13 252.835C281.312 252.872 279.967 252.723 278.19 253.145C276.621 253.518 274.445 253.905 272.969 253.734C272.004 253.623 270.95 253.446 269.749 253.577C268.016 253.764 266.52 254.661 264.725 254.237C262.023 253.598 260.366 250.049 263.376 248.49C265.436 247.423 269.146 247.818 271.413 247.621C275.17 247.295 279.38 246.61 283.142 246.921C286.076 247.164 288.75 246.464 291.744 246.169C293.997 245.946 297.691 245.545 299.161 247.779C299.726 247.127 299.667 245.768 300.882 246.104ZM259.759 276.68C259.355 274.671 276.53 273.565 278.234 273.433C281.813 273.157 285.402 272.96 288.989 272.869C291.938 272.794 294.691 273.357 297.64 272.905C300.395 272.482 303.72 271.616 306.117 273.566C306.47 270.899 316.808 272.198 318.775 272.206C327.337 272.236 335.529 272.256 343.811 271.726C348.544 271.423 353.57 271.015 358.303 271.252C360.439 271.359 362.158 271.928 364.281 271.434C365.666 271.112 367.158 270.442 368.483 271.389C370.033 272.499 370.695 276.264 369.627 277.836C368.85 278.981 368.161 278.854 366.919 278.656C365.009 278.352 363.589 277.911 361.642 278.687C361.957 278.561 360.337 278.922 360.471 278.912C358.265 279.077 355.239 280.618 353.338 278.842C354.1 278.975 355.206 277.616 354.246 277.503C353.525 277.42 353.068 278.193 352.505 278.452C350.58 279.337 349.595 279.06 348.445 277.203C346.127 279.209 345.877 278.654 344.86 276.183C344.076 276.786 343.908 278.214 343.291 278.682C343.199 278.752 343.579 279.619 343.133 279.583C342.72 279.55 342.585 278.872 342.267 278.819C342.064 278.785 341.959 278.191 341.765 278.155C341.554 278.116 341.337 278.495 341.099 278.484C340.462 278.454 338.64 279.809 339.294 277.907C338.328 279.135 337.913 278.352 337.565 277.235C336.45 278.082 335.337 278.929 334.221 279.775C333.703 278.335 332.812 278.727 331.689 279.23C332.028 278.23 331.816 277.283 330.968 277.979C330.476 278.382 330.146 279.661 329.644 280.204C327.609 278.143 326.87 278.708 324.058 278.976C322.986 279.078 321.652 279.276 320.694 278.628C319.851 278.059 319.374 275.968 317.933 277.657C318.254 277.281 317.751 280.167 317.662 280.625C317.027 280.197 316.487 279.67 316.043 279.045C315.213 280.687 313.036 279.214 311.252 279.549C308.444 280.077 305.547 280.967 303.066 278.877C302.89 279.552 300.858 280.411 300.855 280.437C300.976 279.242 301.73 279.662 300.19 279.435C299.907 279.394 299.585 279.904 299.318 279.959C298.4 280.149 297.327 279.969 296.403 279.943C292.554 279.832 289.032 280.685 285.232 280.994C283.95 281.098 282.431 281.302 281.228 280.819C279.99 280.321 280.024 279.756 278.77 280.077C279.167 279.975 277.987 281.215 278.051 281.168C277.882 281.291 277.179 280.686 276.929 280.731C276.856 280.996 276.784 281.26 276.711 281.524C276.409 281.487 276.106 281.45 275.805 281.413C274.978 281.523 274.233 280.687 273.456 280.659C273.599 280.664 271.361 281.497 271.463 281.548C269.901 280.769 270.349 280.994 268.368 281.469C266.494 281.917 264.629 281.813 262.707 282.092C257.116 282.904 260.447 280.102 259.759 276.68ZM254.821 304.632C253.77 303.141 256.567 302.625 257.46 302.494C258.93 302.277 260.879 302.708 261.858 302.475C263.349 302.12 264.788 301.274 266.467 301.044C268.585 300.754 270.721 300.707 272.848 300.526C273.556 300.465 274.434 300.221 275.123 300.262C276.15 300.324 276.576 300.867 277.405 300.871C278.817 300.878 280.559 299.986 282.006 299.823C283.859 299.613 285.73 299.515 287.592 299.422C291.516 299.227 295.398 299.308 299.319 299.304C301.108 299.301 305.871 297.445 306.762 299.526C308.002 297.949 311.182 298.164 312.955 298.118C316.078 298.038 319.168 297.737 322.288 297.592C324.96 297.468 327.945 298.04 330.569 297.639C332.014 297.418 332.493 296.955 334.133 297.164C335.351 297.319 337.208 296.675 338.254 296.96C338.2 296.945 339.559 297.787 339.135 297.814C339.602 297.784 339.574 298.11 340.089 297.965C340.765 297.774 340.455 296.924 341.856 296.622C344.042 296.15 346.957 296.696 349.228 296.575C351.432 296.458 353.631 296.407 355.837 296.417C356.852 296.422 358.108 296.179 359.096 296.377C359.58 296.474 360.608 297.106 361.018 297.042C362.181 296.861 362.773 296.054 364.344 296.104C366.125 296.16 367.728 296.136 369.499 296C371.214 295.869 371.489 295.624 372.339 297.051C373.182 298.466 373.414 300.309 371.863 301.271C372.871 301.205 374.11 302.554 372.923 303.3C372.189 303.762 370.719 302.72 369.841 302.795C368.759 302.888 367.91 303.46 366.732 303.496C365.494 303.533 364.238 303.845 363.017 303.869C361.745 303.894 360.784 303.326 359.578 303.567C358.516 303.781 358.404 304.651 357.127 303.887C356.492 303.506 356.384 302.1 355.518 302.087C354.357 302.069 354.82 303.569 354.153 304.263C353.973 302.119 352.318 305.668 351.659 303.064C351.053 303.928 348.806 305.138 347.718 304.443C346.725 303.81 347.055 302.378 346.641 301.346C345.954 303.201 344.108 305.125 344.275 301.748C343.378 302.852 340.955 302.677 341.562 304.609C340.832 304.595 340.659 303.552 340.044 303.473C339.514 303.405 339.092 303.813 339.011 303.807C339.302 303.831 338.142 304.217 338.124 304.221C338.909 304.061 335.859 303.789 336.378 303.794C335.67 303.788 334.804 304.368 333.976 304.366C333.222 304.364 332.472 304.067 331.728 303.982C329.798 303.762 330.2 304.186 328.988 304.792C328.539 305.016 328.427 305.396 327.789 305.349C327.319 305.314 327.143 304.7 327.09 304.695C326.429 304.628 326.917 304.406 325.89 304.509C325.772 304.711 325.655 304.913 325.537 305.116C325.167 305.591 324.686 305.709 324.095 305.473C322.576 305.798 317.536 307.211 318.03 304.595C317.258 304.972 316.486 305.35 315.713 305.728C315.382 303.619 311.187 306.415 310.25 306.556C309.048 306.737 308.937 306.275 307.8 306.03C307.595 305.986 307.184 306.662 306.704 306.565C305.457 306.314 305.235 306.19 305.021 304.835C304.132 306.497 303.392 305.754 301.78 306.027C301.423 306.088 301.195 306.79 300.682 306.669C300.314 306.582 300.303 305.907 300.049 305.82C299.82 305.741 299.854 305.209 299.517 305.133C299.13 305.046 297.81 306.128 297.432 306.295C296.578 306.671 295.176 307.294 294.343 307.107C293.312 306.877 293.771 306.113 292.315 306.199C290.018 306.334 289.06 308.288 287.631 305.208C286.986 306.442 287.068 306.777 286.032 307.184C285.267 307.485 283.328 307.171 282.32 307.134C278.016 306.975 273.784 308.441 269.516 308.057C267.64 307.888 266.058 307.513 264.165 307.82C262.175 308.143 260.229 308.617 258.211 308.809C257.185 308.905 255.041 309.2 254.537 307.888C254.094 306.733 255.747 305.946 254.821 304.632ZM263.262 351.986C257.679 355.721 253.056 360.821 247.93 365.14C242.79 369.47 238.712 374.282 234.09 379.077C229.817 383.509 225.891 387.702 220.725 391.051C217.456 393.171 214.539 395.78 211.181 397.779C208.666 399.276 204.855 401.244 206.083 396.666C207.341 391.974 209.662 387.232 211.679 382.85C214.545 376.621 217.434 370.45 220.535 364.339C221.701 362.044 222.353 359.758 224.201 357.929C226.213 355.939 227.621 353.34 229.824 351.459C239.089 343.549 253.052 349.661 263.262 351.986ZM280.775 354.668C278.242 355.996 275.408 356.325 272.724 357.203C270.437 357.95 268.311 359.28 265.851 359.379C268.09 357.698 270.014 355.413 272.538 354.137C275.377 352.701 277.955 353.747 280.775 354.668ZM391.927 365.731C382.612 362.588 373.94 357.957 364.867 354.23C363.301 353.586 351.053 349.552 351.301 347.632C359.885 346.06 368.724 343.361 377.328 346.303C385.155 348.98 391.522 355.4 397.581 360.773C399.162 362.175 408.939 368.56 408.064 370.593C407.458 372.003 402.747 371.618 401.635 371.329C400.198 370.955 399.37 370.083 398.243 369.125C396.358 367.523 394.273 366.522 391.927 365.731ZM374.732 313.221C376.146 311.919 376.993 309.944 378.345 308.742C380.081 307.198 382.883 307.95 384.781 308.752C390.477 311.159 395.346 315.205 401.006 317.717C407.28 320.5 412.711 324.219 418.369 328.052C423.541 331.555 429.133 334.456 434.412 337.799C439.792 341.207 445.814 343.422 451.267 346.709C456.817 350.054 462.345 353.413 467.679 357.099C477.189 363.673 487.091 370.423 494.127 379.769C497.744 384.573 501.129 390.022 503.782 395.416C506.195 400.32 508.811 407.127 505.685 412.229C502.683 417.127 497.566 420.987 493.235 424.642C491.595 426.026 490.035 427.707 487.909 428.308C485.323 429.037 482.306 428.835 479.646 429.051C465.427 430.204 452.18 429.116 438.167 426.572C424.655 424.121 411.087 422.748 397.472 421.043C389.791 420.082 382.112 418.962 374.535 417.361C371.296 416.677 368 415.887 364.831 414.955C362.064 414.14 359.736 412.347 356.89 411.637C344.813 408.621 330.994 407.468 319.037 402.395C329.618 397.998 340.863 395.341 351.707 391.687C363.121 387.842 374.269 384.615 386.299 383.522C392.49 382.96 398.03 381.379 403.985 379.724C409.66 378.147 415.584 377.664 421.414 376.957C424.006 376.643 431.404 377.114 432.263 373.725C433.542 368.68 426.273 368.098 423.174 368.55C418.779 369.191 415.154 370.288 411.79 366.682C408.355 362.999 405.017 359.229 401.52 355.593C395.036 348.851 388.352 341.054 379.186 338.029C368.003 334.339 355.035 337.842 343.878 339.94C332.092 342.156 320.326 344.278 308.762 347.5C303.973 348.834 297.797 351.773 292.827 351.301C287.928 350.835 282.38 350.033 277.647 348.62C275.505 347.982 273.744 346.797 271.828 345.693C269.335 344.256 266.605 343.336 263.96 342.22C258.612 339.963 253.398 337.883 247.629 336.996C242.77 336.249 237.61 335.806 232.901 337.509C228.281 339.18 224.188 342.583 220.965 346.218C217.464 350.167 214.57 354.592 211.701 359.004C210.323 361.121 208.642 362.97 207.214 365.04C206.017 366.778 205.317 368.71 204.05 370.399C201.213 374.18 199.287 379.016 197.568 383.414C195.658 388.298 193.536 394.107 193.992 399.421C194.164 401.43 194.344 404.09 195.121 405.952C196.109 408.321 197.518 408.261 199.549 409.154C203.039 410.688 204.018 414.931 208.527 414.104C212.757 413.329 216.425 409.843 219.511 407.065C223.533 403.445 227.383 399.627 231.232 395.824C235.181 391.92 239.073 387.591 242.215 382.999C243.452 381.191 244.416 379.149 245.877 377.503C247.739 375.406 249.829 375.154 252.357 374.319C274.46 367.016 296.67 359.972 319.463 355.15C324.924 353.994 330.43 352.504 335.794 350.966C341.483 349.335 344.43 351.059 349.125 354.163C358.935 360.649 370.531 365.218 381.454 369.45C384.894 370.782 390.37 370.867 393.058 373.495C377.121 375.924 361.932 380.599 346.56 385.254C338.981 387.549 331.315 389.538 323.707 391.733C316.096 393.929 308.775 396.773 301.269 399.249C293.799 401.712 285.904 402.717 278.361 404.989C270.662 407.308 262.994 408.904 255.091 410.313C247.111 411.738 239.186 413.381 231.178 414.655C227.512 415.239 223.847 415.844 220.221 416.647C216.673 417.433 213.245 419.315 209.68 419.751C193.757 421.699 178.146 426.04 162.285 428.494C150.442 430.326 129.839 432.881 122.16 421C114.437 409.051 123.911 395.112 132.365 386.569C137.618 381.259 143.522 376.586 149.715 372.428C156.344 367.979 162.722 363.175 169.351 358.732C184.355 348.678 200.625 340.478 216.745 332.399C224.482 328.521 231.957 324.363 239.484 320.107C243.219 317.995 245.287 321.403 248.24 323.72C250.562 325.542 254.827 330.034 258.077 327.957C258.201 328.705 258.327 329.453 258.452 330.201C259.404 329.767 260.356 329.333 261.308 328.899C261.947 330.576 261.872 331.618 263.659 332.498C264.755 333.039 267.096 333.69 268.141 332.737C268.355 333.4 268.568 334.061 268.781 334.723C269.695 334.653 269.872 332.038 270.044 331.426C271.611 333.714 273.778 335.626 276.531 336.273C276.545 336.123 276.084 334.244 276.104 334.232C276.975 333.699 278.074 335.983 278.536 336.472C280.067 338.093 280.98 337.841 282.672 336.533C282.795 336.666 283.368 338.161 283.451 338.134C283.817 338.018 284.512 336.693 284.588 336.573C284.483 338.314 287.845 338.665 289.032 338.291C288.766 337.781 288.499 337.271 288.234 336.761C292.369 336.208 293.993 340.602 297.963 340.379C300.898 340.214 298.544 339.573 300.205 338.316C301.655 337.217 301.914 339.619 302.056 339.543C302.333 339.253 302.548 338.92 302.7 338.544C303.237 340.601 307.512 342.447 307.07 339.064C308.752 339.737 309.946 340.853 311.807 341.089C314.07 341.376 316.486 340.896 318.743 340.708C323.606 340.304 328.19 339.312 332.574 337.084C335.173 335.763 337.94 334.564 340.382 332.971C342.427 331.637 346.306 327.588 349.028 329.331C348.331 327.275 351.613 329.181 351.717 326.532C352.245 326.929 352.772 327.326 353.299 327.724C353.615 327.03 353.527 325.938 353.95 325.334C354.532 324.504 354.816 324.993 355.311 324.526C355.866 324.004 356.35 322.606 357.015 322.207C357.7 321.798 358.507 322.286 359.244 321.928C360.367 321.383 365.196 316.058 364.379 320.62C366.456 319.915 364.854 319.27 365.114 317.886C365.634 315.113 366.903 317.109 368.166 317.35C370.234 317.747 370.192 316.037 371.346 314.794C372.399 313.659 374.379 313.151 373.697 311.18C374.475 311.6 374.641 312.422 374.732 313.221ZM250.056 253.993C248.427 255.808 247.206 255.032 245.395 254.766C245.201 254.117 244.87 254.027 244.402 254.496C243.865 254.805 243.288 255.008 242.67 255.105C241.184 255.471 239.641 255.315 238.188 255.87C238.23 255.383 238.741 254.518 238.414 254.024C236.885 255.08 235.938 255.753 234.061 255.773C232.541 255.789 229.872 254.628 228.609 256.016C228.57 255.475 228.531 254.935 228.493 254.395C227.875 254.703 227.337 255.115 226.879 255.632C226.792 254.831 226.744 254.226 226.214 253.578C225.21 255.644 224.11 255.693 222.158 254.903C222.432 255.014 220.205 253.709 220.29 254.07C219.586 251.104 230.7 251.349 231.867 251.231C234.781 250.937 237.694 250.766 240.612 250.498C243.38 250.243 245.446 249.812 247.361 252.121C246.508 248.786 254.583 248.951 250.056 253.993ZM122.627 202.269C122.933 207.311 124.055 212.671 122.095 217.524C120.519 221.425 117.374 225.83 113.987 228.376C107.052 233.589 101.173 227.21 100.208 220.201C99.2018 212.889 101.196 203.956 107.492 199.448C111.254 196.754 114.896 196.941 119.227 197.826C120.244 198.035 121.896 197.955 122.477 198.965C122.614 199.202 122.491 202.264 122.627 202.269ZM214.74 269.451C213.542 270.055 212.289 270.409 211.232 271.232C210.865 271.518 210.74 272.169 210.351 272.41C209.643 272.848 208.63 272.557 207.891 272.919C206.669 273.516 205.793 274.371 204.34 274.921C202.183 275.738 200.292 276.859 198.253 277.923C194.856 279.694 191.21 281.214 187.658 282.657C185.866 283.384 180.908 284.803 181.079 287.428C180.678 287.536 180.268 286.659 179.431 286.729C178.281 286.824 176.763 288.154 175.57 288.481C173.337 289.092 171.609 289.146 171.609 291.992C170.899 291.509 170.718 290.328 169.773 290.171C168.709 289.995 168.261 291.143 167.41 291.5C166.408 291.921 165.161 291.517 164.168 291.965C163.734 292.424 163.252 292.825 162.721 293.167C162.181 293.229 161.644 293.213 161.109 293.117C159.002 293.563 157.062 294.356 154.95 294.768C152.891 295.17 151.481 295.316 152.347 297.75C150.145 298.181 149.607 295.844 147.122 296.699C144.076 297.746 141.23 298.501 138.05 299.14C136.429 299.466 134.735 300.193 133.102 300.364C131.937 300.485 130.849 300.069 129.702 300.198C128.319 300.353 127.208 300.994 125.777 301.018C124.42 301.041 122.995 300.798 121.662 300.559C121.85 301.095 122.086 301.61 122.369 302.103C121.447 301.91 121.022 300.802 120.241 300.638C119.421 300.466 118.686 301.312 118.003 301.125C117.712 301.045 117.906 300.148 117.386 299.977C116.912 299.822 116.712 300.005 116.242 299.931C116.085 299.907 114.119 299.801 113.805 299.966C113.258 300.256 113.812 300.8 113.703 300.881C111.854 302.25 111.831 301.511 111.007 300.081C109.796 297.983 108.337 299.307 106.137 298.94C103.685 298.531 101.753 299.613 99.3395 299.459C96.7365 299.293 93.6774 297.345 91.3761 296.207C86.4064 293.751 81.5603 291.427 77.3867 287.707C69.2279 280.435 62.5904 271.491 58.6768 261.253C54.4719 250.253 53.6751 238.782 54.0127 227.112C54.2157 220.094 54.7774 213.08 55.8836 206.144C56.6452 201.373 56.8046 192.895 62.1836 190.722C63.1085 201.893 60.1904 213.277 62.0305 224.375C62.5846 227.718 63.9361 232.173 66.4936 234.649C70.2803 238.314 71.1661 233.016 71.5088 230.089C72.1461 224.654 73.3304 219.249 74.1688 213.84C75.0066 208.433 75.5984 202.965 76.7635 197.615C77.1882 195.664 80.6136 181.378 83.1276 182.055C82.619 192.447 81.2682 202.661 81.215 213.092C81.1939 217.276 80.8192 221.695 81.4232 225.851C81.7338 227.99 83.6816 234.266 87.0315 233.742C90.1315 233.258 86.7234 228.837 86.4339 227.133C85.6672 222.62 86.6446 217.006 87.3594 212.526C88.7122 204.05 91.7303 195.368 96.6634 188.285C101.082 181.942 107.885 175.904 116.08 177.022C119.581 177.5 122.313 178.37 124.073 181.567C125.453 184.077 130.891 186.928 127.74 190.07C124.871 192.93 120.231 190.64 117.042 189.959C113.137 189.124 108.953 190.128 105.688 192.416C100.085 196.341 96.8921 203.357 95.85 209.938C94.4454 218.812 98.2 242.037 112.029 236.832C121.216 233.374 128.135 220.934 127.364 211.411C127.055 207.598 125.564 200.361 130.839 199.331C137.596 198.013 138.551 205.462 137.867 210.302C136.872 217.344 133.151 223.891 128.893 229.458C125.183 234.31 120.867 237.344 116.402 241.351C115.08 242.538 111.708 245.205 112.275 247.411C112.895 249.83 118.194 250.517 120.316 250.915C130.813 252.879 142.65 251.072 153.129 249.7C174.666 246.88 195.92 239.933 213.58 227.162C214.293 235.064 215.193 242.94 215.524 250.87C215.685 254.72 215.726 258.625 216.166 262.454C216.436 264.809 217.416 268.099 214.74 269.451ZM155.021 296.985C154.176 297.426 155.09 294.752 154.855 295.637C156.118 296.089 156.174 296.539 155.021 296.985ZM244.363 201.357C245.706 199.877 249.373 196.358 250.536 199.698C250.969 198.274 251.026 196.165 252.698 198.088C253.363 195.726 260.705 195.947 262.524 195.843C268.346 195.51 274.193 195.332 279.995 194.753C291.918 193.565 304.05 194.178 316.016 194.139C318.608 194.131 321.192 193.99 323.764 194.366C326.247 194.729 328.856 195.747 331.386 195.375C333.635 195.044 335.11 194.424 337.426 194.689C340.197 195.007 342.886 195.232 345.681 195.222C358.045 195.177 370.402 195.678 382.769 195.697C385.179 195.701 388.066 195.231 390.327 196.254C391.165 196.634 392.08 197.896 392.72 198.035C393.454 198.193 393.018 197.049 393.999 197.566C395.314 198.257 394.297 200.384 393.428 200.721C393.948 200.519 392.489 200.32 392.635 200.313C391.943 200.35 391.352 200.881 390.608 200.847C389.476 200.798 388.528 200.107 387.615 199.5C387.6 199.748 388.102 201.403 387.529 201.486C387.036 201.559 386.575 199.927 386.525 199.547C383.759 201.987 380.828 200.627 377.395 200.936C374.96 201.155 369.883 202.78 368.184 200.238C368.114 200.778 367.897 201.251 367.534 201.657C367.049 202.397 366.629 202.334 366.274 201.467C366.155 201.473 364.972 201.73 364.948 201.728C364.116 201.662 363.037 201.363 362.19 201.291C360.879 201.179 361.121 202.133 360.077 202.148C359.507 202.156 358.053 201.333 357.059 201.282C355.337 201.192 353.578 201.922 351.88 201.701C350.71 201.549 349.653 200.597 348.506 200.56C347.076 200.513 346.613 201.603 345.48 200.072C345.248 200.009 345.104 200.91 345.012 200.925C345.034 200.921 343.934 201.084 343.804 201.135C343.578 201.221 342.699 201.624 342.431 201.629C341.852 201.639 341.539 201.225 340.926 201.216C339.912 201.198 336.675 202.091 336.765 200.215C333.147 201.556 330.059 201.033 326.344 201.35C324.64 201.496 323.57 201.268 321.949 200.955C319.918 200.563 318.57 201.056 316.545 201.155C314.599 201.251 313.985 200.427 312.343 199.684C311.695 199.391 311.267 199.004 310.472 199.167C310.019 199.26 310.341 200.023 310.207 200.075C309.509 200.345 309.022 200.059 308.065 200.125C306.298 200.245 305.595 201.722 303.778 200.336C304.381 200.263 304.985 200.188 305.589 200.115C303.852 199.379 301.56 199.003 301.981 201.684C300.499 201.477 301.782 200.468 301.053 200.107C300.325 199.746 299.51 200.35 298.592 200.648C296.171 201.434 294.151 201.044 291.626 200.903C288.756 200.742 282.043 203.084 279.988 200.044C279.927 200.685 279.239 202.469 278.324 202.385C278.025 202.358 278.857 200.463 278.951 200.263C278.48 201.266 276.329 201.457 275.269 201.977C275.388 201.438 275.507 200.899 275.625 200.36C274.641 201.408 274.163 200.769 273.005 201.119C272.499 201.272 271.766 202.316 271.333 202.379C270.829 201.794 270.195 201.543 269.431 201.624C268.924 201.497 268.416 201.472 267.908 201.55C265.876 201.697 264.023 202.826 262.002 202.058C260.252 201.391 259.575 199.676 258.531 202.404C258.257 201.919 257.982 201.434 257.708 200.949C257.369 201.476 257.031 202.002 256.692 202.528C255.368 201.661 255.286 201.158 253.763 201.477C253.405 201.62 253.038 201.6 252.663 201.417C252.573 201.684 252.484 201.951 252.394 202.218C252.358 202.889 252.159 203.111 251.796 202.883C251.491 202.773 251.216 202.607 250.971 202.384C249.963 202.461 248.675 202.726 247.593 202.58C247.176 202.524 244.558 201.142 244.363 201.357ZM275.21 183.304C275.329 183.486 275.448 183.668 275.566 183.85C273.93 184.715 273.545 184.218 273.376 182.483C274.175 182.499 274.311 183.905 275.21 183.304ZM276.224 182.286C277.012 182.633 277.916 183.316 278.658 182.401C279.158 183.854 275.446 185.836 276.224 182.286ZM281.314 182.927C282.968 184.045 278.999 183.146 279.006 183.148C279.719 182.49 280.488 182.416 281.314 182.927ZM295.544 176.692C296.111 179.554 297.676 179.473 300.202 178.142C303.886 176.201 304.508 173.022 304.764 169.227C305.011 165.587 305.456 164.179 309.209 164.938C311.829 165.469 314.044 165.023 316.685 164.95C319.503 164.872 320.496 165.303 320.723 168.203C320.95 171.106 321.466 173.311 323.574 175.521C325.716 177.767 328.573 179.109 331.356 180.366C332.788 181.011 334.132 181.707 335.716 181.846C336.33 181.901 339.524 181.497 339.591 182.508C339.641 183.267 335.217 185.411 334.748 185.666C332.696 186.782 330.651 187.783 328.409 188.459C323.254 190.014 317.787 190.106 312.447 190.012C303.837 189.86 291.938 186.219 286.789 178.58C289.707 177.951 292.626 177.321 295.544 176.692ZM294.771 151.899C293.409 150.756 292.527 149.029 291.395 147.675C290.824 146.992 290.406 146.775 289.863 146.433C289.291 146.073 288.969 146.583 288.492 145.737C287.259 143.551 291.063 140.474 287.028 139.633C285.663 139.348 282.377 140.429 281.979 138.474C281.415 135.708 286.694 135.527 287.936 134.123C290.406 131.332 288.73 126.601 290.234 123.381C291.658 120.331 295.334 119.789 298.234 118.873C302.277 117.597 306.368 116.857 310.472 115.835C313.342 115.121 318.11 112.253 320.771 114.787C316.664 115.699 319.052 117.131 321.789 117.939C324.89 118.854 328.176 119.211 331.389 119.467C334.697 119.729 338.067 119.779 341.335 119.12C344.357 118.51 347.732 115.883 350.901 116.556C349.143 119.613 343.905 121.283 340.723 122.084C339.101 122.492 338.062 122.364 338.28 124.386C338.491 126.346 340.195 128.311 340.58 130.352C341.088 133.053 340.644 135.536 339.682 138.077C338.736 140.576 338.515 140.903 339.342 143.291C340.63 147.011 337.861 151.121 335.303 153.823C324.954 164.744 305.149 160.607 294.771 151.899ZM321.068 86.6288C321.11 86.7404 321.074 86.698 321.068 86.6288V86.6288ZM324.291 114.19C323.862 114.51 321.391 115.182 321.494 114.217C321.632 112.922 323.859 113.39 324.291 114.19ZM329.924 88.0479C329.344 87.6157 327.72 87.7934 328.907 86.1549C329.294 86.8757 329.609 87.4618 329.924 88.0479ZM290.946 77.6907C291.685 75.77 292.504 73.9834 292.837 71.939C293.043 70.6796 292.634 69.2412 294.395 69.0437C292.151 68.0651 292.128 64.2027 291.995 62.2006C291.813 59.4431 290.942 55.7512 292.154 53.1849C293.398 50.5486 295.076 50.5922 295.583 53.7319C295.781 54.9612 295.022 55.3588 294.879 56.2149C294.598 57.9085 295.159 57.5372 296.251 56.247C296.702 57.5584 296.875 59.529 298.711 59.4457C298.589 59.091 297.885 58.3087 298.12 57.8681C298.481 57.1916 300.244 58.2253 300.468 58.3818C302.078 59.5079 302.427 60.5358 301.279 61.9563C302.869 62.1275 301.534 63.5191 302.56 63.882C304.126 64.4354 303.076 61.8133 302.906 61.3522C303.859 61.7241 304.179 62.1486 304.782 62.9015C305.137 63.4209 305.459 63.9603 305.75 64.5182C306.074 65.5365 306.742 65.7917 307.754 65.2838C309.782 65.92 312.581 65.8206 314.398 66.9326C315.228 67.4405 315.528 68.5518 316.222 68.9738C317.002 69.4489 318.047 69.2335 318.886 69.5317C318.579 70.2281 318.827 70.6052 319.629 70.6642C320.253 70.7212 320.856 70.8617 321.439 71.0849C321.876 70.7559 322.351 70.4962 322.863 70.307C323.208 70.9143 323.695 71.0643 324.325 70.7584C326.195 71.1086 327.093 71.8159 328.281 72.8734C329.348 73.8225 328.48 73.8994 329.649 73.8154C330.118 73.7814 330.941 72.985 332.016 73.1401C332.634 73.2607 333.23 73.4512 333.804 73.7115C334.424 74.2425 335.084 74.3092 335.78 73.9122C336.913 74.4657 337.024 75.4462 338.405 75.5802C339.932 75.729 339.44 73.8257 340.489 76.5101C341.9 73.6641 342.418 78.1979 343.876 78.5641C345.385 78.9437 345.549 77.7195 346.841 79.0572C347.229 79.458 347.207 80.1205 347.642 80.5456C348.355 81.2414 349.319 81.1023 349.938 82.0513C349.593 81.5216 350.02 83.9284 350.012 83.8489C350.109 84.9108 349.165 86.1004 351.099 86.01C351.077 86.1215 350.148 87.4753 349.967 87.322C349.923 87.1675 349.885 87.011 349.856 86.8526C349.648 86.9417 349.556 88.2313 349.594 88.459C349.758 88.4846 349.825 88.3628 349.795 88.0935C349.478 89.0881 349.957 89.7197 349.346 90.6637C348.956 91.2672 347.887 91.7205 347.318 92.0931C345.947 92.9922 344.605 93.8938 343.268 94.8506C340.149 97.0823 336.657 99.7731 332.73 100.239C334.702 98.302 346.051 90.9728 340.359 88.8688C339.303 88.4789 337.381 88.1095 336.277 88.0274C334.904 87.9255 333.484 88.7117 331.969 88.2211C330.141 87.6298 330.83 85.9118 329.714 85.2956C327.343 83.988 327.903 87.0629 327.157 87.8684C326.373 87.0456 326.54 86.6455 325.303 86.5711C324.046 86.4954 323.747 87.6568 322.281 86.9334C320.261 85.9362 321.33 83.9502 318.464 83.9034C318.512 83.4673 318.928 82.2489 318.381 81.909C317.644 82.8651 318.214 83.9341 317.53 84.8544C317.188 85.3161 316.445 85.6842 315.902 85.8336C314.631 86.1825 314.451 86.8507 314.658 84.9377C313.716 86.6339 310.829 85.9362 309.112 85.7656C306.32 85.488 303.352 84.9595 300.675 84.0643C298.2 83.2358 296.878 81.8128 294.836 80.5181C294.064 80.0281 293.696 80.2154 292.589 79.9114C291.496 79.6113 290.432 79.0296 290.946 77.6907ZM296.838 47.6577C297.259 47.4037 297.562 51.193 297.051 51.901C296.116 50.4216 294.457 48.2515 296.838 47.6577ZM298.184 46.1462C299.539 44.9194 298.598 48.088 298.349 48.6196C297.847 48.2977 297.345 47.9758 296.843 47.6538C297.483 47.2607 297.643 46.6355 298.184 46.1462ZM349.323 41.0397C361.846 43.6676 374.255 48.5798 384.299 56.6638C393.448 64.0269 399.905 74.474 403.525 85.5867C407.283 97.1214 406.02 109.919 397.08 118.747C392.371 123.396 386.151 126.202 380.224 128.94C377.384 130.251 374.459 131.344 371.608 132.625C369.561 133.545 367.061 135.018 364.724 134.762C365.916 133.508 367.646 133.482 369.089 132.716C370.832 131.788 372.255 130.009 373.758 128.738C375.25 127.476 378.559 123.502 380.851 124.464C380.533 122.347 382.945 121.364 384.032 119.968C385.181 118.491 385.264 116.764 387.382 116.28C385.107 114.5 385.804 111.142 386.298 108.719C386.932 105.62 387.225 102.774 387.474 99.6204C387.924 93.9342 388.287 86.691 385.145 81.6922C384.125 80.0692 382.828 78.5775 381.918 76.8916C380.822 74.8601 381.064 73.0715 381.064 70.8444C379.059 72.1911 378.637 69.4451 377.79 68.1068C377.155 67.1025 376.32 66.5414 376.115 65.2781C375.966 64.3585 376.964 64.2033 376.417 63.2395C375.746 63.7461 375.478 64.531 375.139 65.2595C374.52 65.0119 375.25 64.1501 374.895 63.8698C374.885 63.8621 373.69 63.3433 373.75 63.4184C372.981 62.4443 372.734 60.8276 372.357 59.6682C370.949 60.3813 371.213 60.2973 369.642 59.1058C369.365 58.8961 367.983 57.9329 367.853 57.618C367.245 56.1456 368.31 57.0178 368.013 56.104C367.158 53.4792 362.358 53.9755 361.978 50.0426C359.637 51.5284 358.745 49.4231 357.362 47.9257C355.944 46.3918 353.565 45.8018 353.693 43.3688C352.956 43.6208 352.22 43.8722 351.484 44.123C351.866 41.8778 348.531 42.0208 347.323 40.8819C347.994 40.8903 348.66 40.9429 349.323 41.0397ZM351.231 180.094C352.391 179.056 352.039 180.437 352.786 180.279C353.424 180.144 353.551 179.661 354.163 179.513C356.687 178.903 360.458 179.669 363.112 179.538C366.185 179.386 371.453 180.024 372.918 183.62C373.8 185.785 372.454 185.048 370.971 184.887C369.82 184.763 368.798 184.996 367.66 184.984C367.097 185.071 366.536 185.062 365.978 184.958C365.705 184.778 365.544 184.526 365.494 184.2C363.911 183.96 362.229 184.897 360.475 184.944C358.135 185.006 356.054 184.557 354.276 182.977C353.569 184.031 353.088 184.553 351.816 184.671C351.783 184.674 350.541 184.174 350.349 184.124C350.094 184.058 349.451 184.592 348.96 184.44C349.831 183.053 349.957 181.232 351.231 180.094ZM511.082 192.607C511.495 191.17 511.841 189.714 512.217 188.268C517.995 194.844 523.05 203.649 525.325 212.083C526.803 217.564 529.103 227.496 522.057 230.323C516.318 232.625 513.118 224.371 511.666 220.305C508.461 211.33 508.461 201.739 511.082 192.607ZM252.605 89.5524C252.68 89.5376 248.865 91.7558 250.122 89.9596C250.627 89.2375 252.541 88.7296 253.391 88.7296L252.605 89.5524ZM248.936 90.4925C248.495 90.8638 248.049 91.2306 247.6 91.5923C247.168 90.91 246.736 90.2276 246.304 89.5453C247.155 89.1862 250.77 88.9169 248.936 90.4925ZM246.248 159.461C245.45 158.92 244.817 159.207 244.578 160.115C244.578 159.212 245.048 157.114 245.77 156.87C246.237 156.712 244.219 154.323 244.786 153.697C246.229 154.524 245.365 155.316 245.788 156.383C245.979 156.865 246.552 157.32 246.677 157.69C246.89 158.318 247.752 160.477 246.248 159.461ZM242.339 154.085C241.521 154.295 242.952 155.644 242.951 156.24C242.95 156.691 242.408 157.037 242.185 157.654C241.701 158.991 242.534 159.894 241.162 160.914C241.162 157.985 239.196 150.223 242.974 148.796C241.131 147.344 242.645 145.669 244.089 147.406C245.478 149.076 244.593 153.508 242.339 154.085ZM240.37 142.526C239.628 139.893 237.393 138.972 234.838 139.128C234.936 137.78 235.957 135.836 236.695 138.266C236.999 137.548 237.209 136.611 237.901 136.135C239.066 139.788 244.874 141.806 241.257 145.764C240.962 144.684 240.675 143.603 240.37 142.526ZM233.621 139.324C220.17 140.299 201.287 143.09 190.523 132.78C183.505 126.058 183.879 115.589 189.551 108.12C192.788 103.858 197.206 100.857 201.643 97.998C203.355 96.8944 204.806 96.1659 206.686 95.5317C206.99 95.4989 207.277 95.5669 207.544 95.7356C207.65 95.2816 207.906 94.9455 208.313 94.7262C209.039 94.3376 210.073 94.1991 210.491 93.3923C210.045 94.9071 209.816 96.4666 209.652 98.0339C209.289 97.612 208.927 97.19 208.565 96.768C208.263 99.6224 205.289 97.8948 203.514 98.2513C204.683 99.8699 205.52 100.458 205.62 102.597C204.749 100.989 202.928 99.9315 201.234 99.4133C202.154 102.134 202.804 103.748 201.878 106.732C200.759 106.093 200.684 104.559 199.327 104.191C198.969 105.97 198.906 107.944 198.447 109.671C194.973 108.086 195.312 112.354 196.707 114.465C197.449 115.589 197.813 116.889 198.475 117.968C200.098 120.613 198.865 116.657 200.67 116.845C200.264 119.635 200.123 119.913 202.165 121.956C204.158 123.949 205.192 126.713 207.323 128.585C207.94 127.796 206.97 126.971 206.885 126.216C208.868 126.549 209.797 128.538 211.704 126.776C212.535 128.397 213.435 130.181 215.426 130.514C214.11 128.012 217.954 129.709 218.94 130.064C219.688 130.333 221.028 130.547 221.317 130.651C222.941 131.238 221.827 130.185 222.813 132.108C224.26 131.672 224.807 130.47 226.538 131.485C227.946 132.31 227.949 133.724 228.271 135.172C228.606 134.224 228.945 133.278 229.316 132.344C229.694 132.503 231.279 134.247 231.106 134.255C234.816 134.073 234.685 136.377 233.621 139.324ZM214.735 92.1034C215.48 91.5807 216.39 92.2765 217.226 92.0893C218.384 91.8308 219.042 90.8388 220.336 90.7323C219.976 91.8828 219.3 91.775 218.729 92.6786C218.534 92.9864 218.635 93.7252 218.462 93.9022C217.012 95.3874 216.511 94.1754 215.031 93.0512C215.16 94.4069 215.421 94.8352 214.143 95.1988C212.987 95.5284 211.079 94.3145 210.496 93.3834C210.988 92.3997 213.844 92.7293 214.735 92.1034ZM223.964 89.9846C225.22 90.1045 223.708 93.8098 221.908 90.2155C222.585 90.068 223.271 89.991 223.964 89.9846ZM230.423 89.2683C232.403 88.8643 239.01 86.9815 239.745 90.0648C239.877 89.9878 240.368 88.2474 240.597 88.4596C241.512 89.3106 241.614 90.4386 241.544 91.6205C240.438 89.317 240.831 91.3403 240.082 91.1825C239.887 91.1408 239.588 91.5064 239.092 91.3557C238.442 91.1575 237.977 89.7755 237.567 89.3074C236.884 90.2822 236.038 91.5371 234.67 91.4525C233.703 91.3928 232.143 88.9008 233.396 91.6288C232.661 91.3858 231.809 90.8356 230.989 90.9459C230.071 91.0696 229.594 91.9758 228.734 92.122C226.826 92.4452 226.539 90.6098 225.3 89.6133C227.008 89.5139 228.736 89.612 230.423 89.2683ZM242.406 89.2388C242.546 88.6065 244.279 88.3513 244.72 88.552C245.797 89.0413 245.399 89.687 245.201 90.7618C244.402 90.3835 243.602 90.0058 242.803 89.6274C243.996 91.5487 241.835 91.8276 242.406 89.2388ZM577.912 201.778C577.77 197.174 577.636 192.49 576.469 188.007C575.652 184.87 573.645 179.245 569.849 178.7C564.125 177.879 560.955 189.192 559.352 193.076C559.031 188.504 559.311 183.637 557.584 179.297C556.202 175.82 552.708 172.526 549.7 176.431C547.022 179.907 546.508 185.038 545.804 189.22C544.89 194.639 544.342 200.099 543.675 205.551C541.061 200.498 540.604 194.714 538.537 189.463C536.587 184.508 533.519 179.775 530.563 175.368C528.149 171.767 525.212 168.383 521.431 166.182C518.139 164.266 512.384 162.194 509.247 165.376C506.629 168.03 507.039 171.582 507.175 174.932C507.236 176.423 507.47 177.446 506.158 178.198C505.514 178.567 504.506 178.376 503.798 178.573C502.656 178.892 501.781 179.432 500.816 180.15C494.046 185.181 490.925 194.248 489.96 202.332C488.737 212.575 492.73 221.355 496.166 230.727C496.714 232.22 498.453 235.389 498.213 237.056C497.949 238.883 495.656 238.93 494.109 238.968C489.436 239.084 484.551 238.735 479.902 238.3C468.831 237.264 457.77 231.935 447.857 227.176C446.049 226.308 443.49 225.811 442.014 224.444C440.626 223.159 440.261 221.099 439.063 219.625C436.123 216.007 434.25 212.92 429.921 210.735C425.513 208.509 421.015 206.453 416.714 204.015C411.395 201 406.481 197.181 401.384 193.804C391.912 187.531 382.504 180.654 372.461 175.32C367.795 172.841 362.58 172.439 357.735 170.41C353.017 168.433 347.226 168.431 342.302 169.679C339.904 170.287 338.272 171.729 336.066 172.67C333.481 173.773 331.372 172.556 329.098 171.239C325.623 169.228 322.177 165.951 327.126 163.782C328.805 163.045 330.909 162.766 332.375 161.609C333.939 160.376 335.194 158.101 336.465 156.556C339.291 153.122 340.979 149.168 345.115 147.033C349.689 144.671 355.111 144.028 359.988 142.485C365.272 140.813 370.446 138.825 375.632 136.873C384.975 133.356 394.688 129.559 401.402 121.818C407.193 115.139 409.716 106.518 409.482 97.762C409.005 79.862 399.416 61.6959 385.659 50.5043C368.789 36.781 347.328 32.2048 326.019 32.4446C316.018 32.5575 304.084 33.8664 295.739 39.9425C288.531 45.1907 287.332 54.3699 288.405 62.6559C288.839 66.0188 290.327 70.4564 287.955 73.4197C286.628 75.0774 284.245 75.4879 282.457 76.5216C280.211 77.8202 278.229 79.0649 275.685 79.7517C264.876 82.6708 253.49 81.6544 242.438 81.4928C224.027 81.2235 205.156 86.2081 191.421 99.1812C180.33 109.656 177.004 129.41 190.531 139.622C201.46 147.872 218.603 146.965 231.489 145.526C235.485 145.079 238.233 144.43 238.242 149.319C238.252 154.659 237.368 160.241 238.73 165.484C240.876 173.741 248.81 173.938 255.825 172.16C259.527 171.222 263.105 169.811 266.62 168.333C271.775 166.167 276.501 162.98 281.592 160.817C285.044 159.351 287.628 164.092 290.69 160.805C291.255 160.198 291.36 159.293 292.213 158.982C293.55 158.495 295.793 160.202 296.966 160.742C298.723 161.551 300.493 162.145 301.194 164.092C301.851 165.913 301.563 168.809 300.934 170.606C299.568 174.511 295.89 173.739 292.531 173.478C286.673 173.022 280.855 172.056 274.999 171.65C269.746 171.286 264.826 172.856 260.295 175.446C250.777 180.888 242.991 189.542 234.738 196.66C230.491 200.323 226.385 204.28 221.767 207.469C219.759 208.856 217.584 210.131 215.838 211.855C214.106 213.565 213.916 215.119 213.324 217.394C212.269 221.445 207.03 223.426 203.755 225.563C199.124 228.585 194.215 230.718 189.023 232.572C178.029 236.499 166.948 239.241 155.454 241.269C149.827 242.261 144.246 242.913 138.564 243.449C133.666 243.911 128.457 245.419 123.565 244.215C124.974 241.929 127.471 240.557 129.415 238.79C131.922 236.513 134.054 233.814 135.952 231.018C139.645 225.574 142.235 219.732 142.83 213.128C143.366 207.185 142.751 200.075 139.165 195.054C137.926 193.32 135.476 192.848 134.367 191.285C133.265 189.732 133.685 187.059 133.081 185.248C131.545 180.642 126.985 174.935 122.972 172.26C118.619 169.357 112.25 168.29 107.221 169.803C97.9041 172.606 92.1812 182.562 87.918 190.609C85.5891 185.709 89.4891 178.439 84.9396 174.426C81.1023 171.04 78.0567 177.598 76.7731 180.404C70.7485 193.573 69.3804 207.542 66.8561 221.633C65.8275 220.619 66.3546 218.017 66.4513 216.808C66.6313 214.556 66.6147 212.348 66.6191 210.086C66.6313 204.374 67.6933 198.636 67.2065 192.93C66.9253 189.631 65.8736 182.675 61.0807 183.771C57.016 184.701 54.47 190.416 53.1928 193.911C51.3507 198.951 50.9254 203.941 51.0401 209.266C51.1669 215.149 50.046 220.936 49.7744 226.81C49.2467 238.222 49.768 249.535 53.0423 260.548C58.404 278.583 70.7318 293.567 87.1852 302.616C96.2503 307.602 106.307 310.756 116.647 311.435C122.25 311.802 127.659 311.135 133.214 310.556C138.696 309.984 144.207 309.72 149.68 309.049C161.867 307.554 173.743 303.696 184.82 298.504C190.652 295.771 196.135 292.416 201.871 289.502C204.172 288.333 205.727 286.87 207.691 285.245C209.638 283.634 210.177 283.508 212.392 283.508C211.742 281.77 213.638 281.234 214.482 280.134C214.434 280.668 214.387 281.201 214.339 281.734C214.983 280.339 215.581 280.352 216.135 281.774C216.683 280.182 217.089 278.545 217.75 276.993C220.278 278.272 220.065 281.314 223.446 279.093C226.23 277.265 228.79 275.109 231.628 273.318C238.093 269.237 243.668 263.927 250.152 259.893C250.152 263.822 250.429 267.785 249.904 271.695C249.404 275.411 248.016 278.886 246.912 282.444C244.877 289.01 244.736 296.026 242.481 302.525C241.548 305.217 239.117 307.468 238.42 310.088C237.71 312.761 239.351 314.903 236.6 316.658C234.66 317.895 232.236 318.417 230.088 319.166C226.812 320.308 223.702 321.92 220.513 323.286C205.554 329.696 190.963 336.223 177.105 344.841C163.953 353.02 150.599 361.466 138.517 371.179C128.032 379.608 117.432 390.507 114.879 404.258C112.403 417.596 119.002 431.913 132.253 436.306C139.143 438.59 146.932 438.307 154.107 438.406C161.827 438.512 170.009 436.652 177.599 435.305C185.616 433.883 193.495 431.658 201.534 430.388C209.248 429.17 216.323 426.447 223.911 424.769C231.992 422.982 240.281 422.012 248.406 420.404C252.065 419.68 255.649 418.613 259.317 417.943C263.333 417.209 267.393 416.934 271.37 415.962C279.084 414.077 286.47 411.038 294.217 409.284C297.7 408.495 301.13 407.439 304.615 406.702C307.823 406.024 310.322 404.22 313.537 405.701C316.135 406.898 318.207 408.949 320.665 410.378C323.853 412.232 327.215 413.892 330.539 415.487C337.218 418.692 344.145 420.907 351.129 423.313C358.465 425.841 365.668 428.724 373.268 430.393C381.059 432.104 389.007 432.58 396.852 433.934C412.919 436.706 428.849 437.95 445.157 438.05C453.401 438.102 461.643 437.125 469.867 437.241C477.147 437.343 483.477 438.984 490.134 435.113C500.772 428.929 513.111 419.613 512.849 406.082C512.612 393.827 505.26 382.118 498.365 372.452C489.991 360.713 478.052 352.447 466.35 344.349C453.879 335.72 439.871 329.758 426.764 322.225C420.06 318.373 413.878 314.229 406.599 311.491C403.125 310.185 399.735 308.67 396.301 307.263C393.538 306.131 389.548 305.506 387.184 303.628C385.708 302.456 385.566 300.682 385.177 298.939C384.314 295.084 382.958 291.427 381.643 287.709C379.106 280.529 377.419 273.217 376.328 265.687C375.289 258.509 372.981 251.044 374.176 243.748C382.038 251.353 390.116 258.663 398.159 266.065C401.174 268.84 404.132 271.672 407.162 274.43C409.437 276.5 412.282 279.575 415.453 280.189C419.502 280.974 418.023 276.494 420.804 275.8C422.503 275.376 427.629 279.694 428.972 280.547C437.489 285.953 446.919 289.38 456.286 293.06C466.108 296.919 476.209 300.346 486.778 301.318C496.541 302.216 506.524 301.063 515.945 298.404C534.707 293.107 548.513 280.539 558.645 264.248C570.19 245.684 578.591 223.938 577.912 201.778Z" fill="black"/>
<path fill-rule="evenodd" clip-rule="evenodd" d="M291.164 161.309C291.161 161.314 291.132 161.376 291.132 161.376C291.167 161.351 291.178 161.329 291.164 161.309Z" fill="black"/>
<path fill-rule="evenodd" clip-rule="evenodd" d="M292.069 161.549C291.999 160.957 291.847 160.378 291.614 159.812C290.993 160.796 290.438 161.218 291.254 162.261C291.525 162.023 291.797 161.786 292.069 161.549Z" fill="black"/>
<path fill-rule="evenodd" clip-rule="evenodd" d="M335.333 302.282C336.028 301.543 334.813 301.264 334.351 301.254C334.397 302.047 334.004 303.948 335.089 304.315C334.829 303.598 334.911 302.92 335.333 302.282Z" fill="black"/>
<path fill-rule="evenodd" clip-rule="evenodd" d="M317.006 147.592C315.812 149.898 318.45 150.613 319.977 149.499C321.126 148.662 321.805 146.527 321.994 145.157C322.604 140.725 319.503 136.506 317.957 132.573C317.557 131.557 317.009 128.07 315.723 127.974C314.244 127.864 314.135 131.075 314.116 131.904C314.059 134.402 314.72 136.947 315.496 139.305C316.331 141.847 318.401 144.899 317.006 147.592Z" fill="black"/>
<path fill-rule="evenodd" clip-rule="evenodd" d="M322.685 138.344C327.274 142.431 330.946 135.624 330.625 131.598C330.546 130.601 329.872 126.923 327.98 128.261C327.029 128.934 327.84 131.119 327.387 132.078C325.192 136.73 323.078 129.515 321.6 128.948C319.801 128.258 319.621 130.621 319.623 131.884C319.628 134.392 320.821 136.684 322.685 138.344Z" fill="black"/>
<path fill-rule="evenodd" clip-rule="evenodd" d="M306.025 138.979C307.106 137.277 308.436 134.994 308.582 132.954C308.811 129.784 306.963 130.049 305.443 132.261C304.369 133.823 303.564 136.473 301.193 135.814C298.266 135.002 299.16 131.066 297.522 129.196C293.384 134.754 301.214 146.554 306.025 138.979Z" fill="black"/>
<path fill-rule="evenodd" clip-rule="evenodd" d="M312.226 155.986C313.938 156.356 318.399 156.219 316.854 153.599C314.904 150.298 308.421 155.163 312.226 155.986Z" fill="black"/>
<path fill-rule="evenodd" clip-rule="evenodd" d="M372.178 57.5567C372.491 56.6238 372.061 56.4544 371.314 55.7197C370.606 56.3726 371.512 57.0594 372.178 57.5567Z" fill="black"/>
<path fill-rule="evenodd" clip-rule="evenodd" d="M404.097 226.522C405.226 226.701 405.59 226.104 405.187 224.73C403.405 224.615 403.043 225.212 404.097 226.522Z" fill="black"/>
<path fill-rule="evenodd" clip-rule="evenodd" d="M342.448 82.3856C343.693 82.955 343.216 84.1231 343.194 85.1104C343.836 84.4133 345.132 83.1389 344.604 82.1376C343.791 80.5937 341.667 82.0294 342.448 82.3856Z" fill="black"/>
<path fill-rule="evenodd" clip-rule="evenodd" d="M300.029 62.954C299.84 62.5836 299.65 62.2132 299.46 61.8428C298.687 62.4634 297.492 64.1045 298.722 64.9043C299.225 64.2929 299.661 63.6427 300.029 62.954Z" fill="black"/>
<path fill-rule="evenodd" clip-rule="evenodd" d="M314.971 73.8463C316.52 75.0614 315.777 71.332 315.731 71.0274C315.5 71.4648 314.188 73.2325 314.971 73.8463Z" fill="black"/>
<path fill-rule="evenodd" clip-rule="evenodd" d="M314.112 71.9524C313.994 71.6443 313.875 71.3362 313.756 71.0274C313.129 71.6088 312.359 72.7963 313.397 73.4766C313.681 73.0001 313.92 72.4923 314.112 71.9524Z" fill="black"/>
<path fill-rule="evenodd" clip-rule="evenodd" d="M323.952 84.7593C324.079 84.8762 324.206 84.993 324.332 85.1104C324.843 84.0795 324.262 83.305 323.297 83.2735C323.365 83.8523 323.584 84.3476 323.952 84.7593Z" fill="black"/>
<path fill-rule="evenodd" clip-rule="evenodd" d="M282.435 200.734C283.049 200.316 283.607 199.839 284.109 199.303C282.29 198.191 283.38 200.601 281.191 199.121C280.719 199.773 281.489 201.233 282.435 200.734Z" fill="black"/>
<path fill-rule="evenodd" clip-rule="evenodd" d="M358.873 301.866C359.565 300.805 359.69 300.835 358.745 300.029C357.957 301.341 358.039 301.004 358.873 301.866Z" fill="black"/>
<path fill-rule="evenodd" clip-rule="evenodd" d="M214.307 132.917C214.683 133.31 215.06 133.703 215.436 134.095C215.612 133.581 216.571 132.129 215.92 131.646C215.382 132.069 214.844 132.493 214.307 132.917Z" fill="black"/>
<path fill-rule="evenodd" clip-rule="evenodd" d="M227.7 136.802C227.099 136.702 225.661 136.263 225.328 136.822C226.208 137.543 228.192 136.885 227.7 136.802Z" fill="black"/>
</svg>
